<?xml version="1.0" encoding="utf-8"?>
<!-- Generator: Adobe Illustrator 23.0.0, SVG Export Plug-In . SVG Version: 6.00 Build 0)  -->
<svg version="1.1" id="Layer_1" xmlns="http://www.w3.org/2000/svg" xmlns:xlink="http://www.w3.org/1999/xlink" x="0px" y="0px"
	 viewBox="0 0 1366 974" style="enable-background:new 0 0 1366 974;" xml:space="preserve">
<style type="text/css">
	.st0{fill:url(#SVGID_1_);}
	.st1{fill:url(#SVGID_2_);}
	.st2{opacity:0.14;fill:#1D1D1B;}
	.st3{fill:#8ED2F4;}
	.st4{fill:none;stroke:#EDEDED;stroke-miterlimit:10;}
	.st5{fill:#352A7E;}
	.st6{fill:#DBA6CC;}
	.st7{fill:#5F4239;}
	.st8{opacity:0.31;fill:#1D1D1B;}
	.st9{fill:#EF805C;}
	.st10{fill:#36211F;}
	.st11{fill:#2A9497;}
	.st12{fill:#352121;}
	.st13{fill:#D57355;}
	.st14{fill:#C25840;}
	.st15{fill:#C95F45;}
	.st16{fill:#E07D59;}
	.st17{fill:#492D2E;}
	.st18{fill:#FFFFFF;}
	.st19{fill:#3BAEB5;}
	.st20{fill:#3B2323;}
	.st21{fill:#D57355;stroke:#422918;stroke-width:0.05;stroke-miterlimit:10;}
	.st22{opacity:0.54;fill:none;stroke:#79C7CB;stroke-width:14;stroke-linecap:round;stroke-miterlimit:10;}
	.st23{fill:#41B8B7;}
	.st24{fill:none;stroke:#1D1D1B;stroke-linecap:round;stroke-miterlimit:10;}
	.st25{opacity:0.54;fill:none;stroke:#BAE1F6;stroke-width:6;stroke-miterlimit:10;}
	.st26{fill:none;stroke:#1D1D1B;stroke-miterlimit:10;}
	.st27{fill:#ED8369;}
	.st28{fill:none;stroke:#356EB4;stroke-width:7;stroke-miterlimit:10;}
	.st29{fill:#1B408C;}
	.st30{fill:#306CA6;}
	.st31{fill:#2F6BB2;}
	.st32{fill:#EF8159;}
	.st33{fill:#4872B6;}
	.st34{fill:#1F3D8A;}
	.st35{fill:#D0D6E9;}
	.st36{fill:#356EB4;}
	.st37{fill:#C665A3;}
	.st38{fill:#D28DBC;}
	.st39{fill:#9A6A5C;}
	.st40{fill:#82513F;}
	.st41{fill:#E9555A;}
	.st42{fill:#6B4D43;}
	.st43{fill:#87685B;}
	.st44{fill:#705146;}
	.st45{fill:none;stroke:#5F4239;stroke-width:0.05;stroke-miterlimit:1;}
	.st46{fill:#9C7C70;}
	.st47{fill:#E1BBAB;}
	.st48{fill:#D06D52;}
	.st49{fill:#E9524C;}
	.st50{fill:#F8FBF7;}
	.st51{fill:#FFFDF9;}
</style>
<linearGradient id="SVGID_1_" gradientUnits="userSpaceOnUse" x1="1511.182" y1="122.4402" x2="51.6528" y2="996.9084">
	<stop  offset="0" style="stop-color:#DECBB5"/>
	<stop  offset="0.1509" style="stop-color:#D7C6B6"/>
	<stop  offset="0.3774" style="stop-color:#C2B9BA"/>
	<stop  offset="0.6499" style="stop-color:#A1A4C1"/>
	<stop  offset="0.8795" style="stop-color:#7F8FC7"/>
</linearGradient>
<path class="st0" d="M753.99-2.93c0,0,107.14,81.59,97.87,225.69c-6.34,98.55-130.26,176.84-207.96,216.48
	c-36.24,18.49-61.34,52.59-68.21,92c-12.79,73.37-51.68,185.28-169.89,195.37C258.72,739.17,66.23,771.84,5.04,782.59L-12,793
	l1381.98-6.93v-789H753.99z"/>
<linearGradient id="SVGID_2_" gradientUnits="userSpaceOnUse" x1="1536.1161" y1="114.9346" x2="23.5958" y2="1021.1522">
	<stop  offset="0.1205" style="stop-color:#7F8FC7"/>
	<stop  offset="0.3501" style="stop-color:#A1A4C1"/>
	<stop  offset="0.6226" style="stop-color:#C2B9BA"/>
	<stop  offset="0.8491" style="stop-color:#D7C6B6"/>
	<stop  offset="1" style="stop-color:#DECBB5"/>
</linearGradient>
<path class="st1" d="M775.39-2.93c0,0,107.93,81.8,98.59,226.27c-6.39,98.81-131.22,177.3-209.49,217.05
	c-36.51,18.54-61.8,52.72-68.72,92.24C582.88,606.2,543.7,718.4,424.61,728.51C251.07,743.25,14.75,785.68,1.76,788.02L-6,789
	c5.48,10.27-17.74,164.05,58.3,177.14c232.47,40,287.59-85.01,362.74-97.01c75.15-12,310.63-78.01,422.86,21s247.5-9,247.5-9
	s106.22-93.01,284.58-93.01V-2.93H775.39z"/>
<ellipse class="st2" cx="766.05" cy="488.66" rx="57.98" ry="17.42"/>
<g>
	<path class="st3" d="M753.72,397.17c0,0-24.87-17.37-27.72-31.59c-2.84-14.21-31.98-60.41-73.91-62.54
		c-17.06,31.98,4.26,59.7,4.26,59.7s14.92,19.19,15.64,28.43c0.71,9.24,0.71,22.74-1.42,30.56c-2.13,7.82,19.68,30.56,29.03,28.43
		s12.9,14.21,12.9,14.21s4.97,14.21,14.21,14.21s28.43,6.4,38.38,22.74"/>
	<path class="st4" d="M652.09,303.04c0,0,37.02,42.38,55.01,72.7c4.35,7.33,7.54,15.26,9.82,23.48
		c7.63,27.48,28.8,57.28,36.53,66.75"/>
	<path class="st4" d="M673.82,308.21v21.02c0,0-19.9-7.74-27.92-7.02"/>
	<path class="st4" d="M689.73,317.4l-3.87,27.38c0,0-30.66-1.58-40.39-6.91"/>
	<path class="st4" d="M699.36,325.44l-3.14,33.58c0,0-35.98,1.94-45.56-6.41"/>
	<path class="st4" d="M712.06,339.64l-6.78,33.1c0,0-34.97,3.43-41.86,0"/>
	<path class="st4" d="M721.54,354.37l-7.28,36.59c0,0-41.47,3.85-42.27,0.21"/>
	<path class="st4" d="M733.55,379.04c0,0-8.87,31.48-11.23,35.4c0,0-47-1.16-48.51-3.94"/>
	<path class="st4" d="M745.5,390.76c0,0-10.06,37.11-14.34,41.68c0,0-47.71,6.12-52.91,4.54"/>
	<path class="st4" d="M705.28,451.29c1.33,0.75,34.11-5.08,34.11-5.08l14.05-17.2"/>
	<polyline class="st4" points="715.03,469.7 747.65,458.35 753.44,451.36 	"/>
	<path class="st5" d="M758.75,481.54c0,0-50.48-121.64,38.7-168.54c24.5-3.55,0,46.2,0,46.2s-12.45,17.06-8.9,32.69
		s4.97,45.48-0.71,51.17c-5.69,5.69-24.16,29.85-24.16,29.85L758.75,481.54z"/>
	<path class="st6" d="M765.09,501.33c0,0-4.56-8.56-6.34-19.79c-2.19-13.85-0.16-31.76,19.85-42.75
		c36.25-19.9,30.56-4.97,49.04-27.01c5.76-3.2,8.06,0.08,8.85,4.65c1.17,6.74-1.4,13.58-6.49,18.16
		c-6.55,5.89-15.96,16.12-15.86,26.23C814.31,478.63,775.04,489.25,765.09,501.33z"/>
</g>
<g>
	<path class="st7" d="M983.19,643.6c0.4,2.38-0.46,4.85-1.99,6.69c-0.77,0.93-1.72,1.68-2.71,2.35c-0.5,0.32-1.04,0.6-1.56,0.89
		l-1.64,0.73l1.64-0.74c0.52-0.3,1.05-0.58,1.55-0.9c0.98-0.68,1.93-1.43,2.69-2.36C982.69,648.44,983.56,645.98,983.19,643.6z"/>
</g>
<g>
	<path class="st7" d="M986.56,619.11c-0.17,0.62-0.56,1.15-1.05,1.56c-0.49,0.41-1.09,0.67-1.71,0.83c-0.62,0.17-1.26,0.2-1.9,0.2
		c-0.64-0.02-1.27-0.09-1.9-0.19c0.63,0.09,1.26,0.16,1.9,0.17c0.63-0.01,1.27-0.05,1.88-0.22c0.61-0.15,1.21-0.4,1.7-0.8
		C985.98,620.25,986.38,619.72,986.56,619.11z"/>
</g>
<g>
	
		<ellipse transform="matrix(0.985 -0.1724 0.1724 0.985 -47.4442 167.5846)" class="st8" cx="941.06" cy="356.93" rx="61.56" ry="23.38"/>
	<path class="st9" d="M954.04,292.38l14.74-13.81l4.12,5.05c0,0,4.78,5.84,0,13.81c-1.59,7.97-9.56,43.29-9.56,43.29
		s-1.06,0.97,4.51,0.44c5.58-0.53,7.17,0.16,7.17,0.16l-2.3,4.62l-9.12,8.14l-8.76,0.71l-2.21-4.07v-4.34l2.83-17
		c0,0,1.77-30.89,4.96-32.62c0,0-1.59-2.99-5.51-3.85L954.04,292.38z"/>
	<path class="st9" d="M928.72,295.39l10.62,4.78l4.6-2.39c0,0,0.35,8.41-3.01,12.48c-3.36,4.07-23.37,38.59-18.59,53.64l1.95,5.31
		l-7.79-2.12l-4.6-7.08l0.89-10.8c0,0,2.3-2.3,3.54-12.75s4.39-28.72,9.74-34.52C926.06,301.94,929.61,296.46,928.72,295.39z"/>
	<path class="st10" d="M911.9,347.8c0,0,1.95,0,1.95,1.77c0,1.77-0.71,11.15,4.6,16.64c0,0,2.3,1.77,3.89-2.3
		c0,0,7.44,0.71,7.26,4.25c-0.18,3.54-6.2,5.49-6.2,5.49s-5.67,0.18-6.73,0c-1.06-0.18-10.27-13.28-9.56-18.85
		C907.12,354.79,907.83,351.16,911.9,347.8z"/>
	<path class="st10" d="M951.2,349.74c0,0,0.18,9.03,5.49,8.32c5.31-0.71,18.32-9.21,18.32-9.21s9.12-10.45-2.39-9.74l-4.78,2.04
		c0,0,5.13,1.86,1.95,4.51c-3.19,2.66-4.6,6.02-12.57,5.31C957.22,350.98,951.05,348,951.2,349.74z"/>
	<path class="st11" d="M926.24,134.64c0.35,0,6.53,0,6.53,0v9.38l-5.64,3.36l-3.37-3.72L926.24,134.64z"/>
	<path class="st9" d="M945.18,149.16c0,0,2.3,16.46-5.13,22.48c-7.44,6.02-6.55,1.42-6.55,1.42l-11.46-3.89l9.87-11.15l5.14-10.62
		L945.18,149.16z"/>
	<path class="st12" d="M908.71,151.64c0,0,11.61-1.34,6.73-13.63c0-12.04,6.6-11.33,6.6-11.33s9.77-0.6,5.62,16.64
		C927.66,143.32,917.74,164.21,908.71,151.64z"/>
	<path class="st13" d="M991.04,141.73c-0.07-0.22-0.14-0.44-0.21-0.64c-1.56-4.85-1.56-4.85-1.56-4.85H975.1l-1.95,2.12
		c0,0-18.06,0.36-19.3,3.36s18.43,3.89,18.43,3.89s-3.85,40.55-1.43,45.5c1.43,4.6,1.77,8.14,0.71,11.33
		c-1.06,3.19-4.25,9.03-4.25,9.03s-1.59,6.37,2.66,3.19c3.4-3.89,6.02-10.8,6.02-10.8s0.35-9.38,1.06-10.45
		c0.71-1.06,1.95,8.14,1.95,8.14s1.59,4.78,0.71,6.9c-0.89,2.12-7.79,12.39-5.31,14.69c2.48,2.3,9.03-11.33,9.03-11.33
		s1.42-2.12,0.89-4.6s3.54-19.65,5.31-19.39c1.77,0.27,3.31,11.6,3.31,11.6v10.45c0,0-1.65,7.26,0,7.26s3.59-8.67,3.59-8.67
		s0.89-11.33,0-13.63c-0.89-2.3-4.07-10.09-4.07-10.09l-1.42-20.71c0,0,1.59-1.77,1.77-5.31
		C992.98,155.18,991.04,141.73,991.04,141.73z"/>
	<polygon class="st14" points="986.94,125.06 991.04,123.31 990.8,131.93 986.94,125.79 	"/>
	<polygon class="st14" points="976.43,123.31 978.64,117.12 981.66,122.45 	"/>
	<path class="st15" d="M972.29,160.45c0,0,0.69-9.45,3.88-8.46c3.19,0.99,8.67,5.28,7.26,12.54c0.23,5.78,1.34,9.08,0.23,10.07
		c-1.11,0.99-9.08,8.42-6.78,12.71c0,0-0.37,3.14-1.51,2.48c-1.14-0.66-2.35-2.81-3.07-7.26
		C971.56,178.07,972.19,161.38,972.29,160.45z"/>
	<path class="st9" d="M940.05,172.27l32.24-18.86c0,0-0.19-3.54,1.76-6.02c1.95-2.48,3.98-3.61,3.36-5.66
		c-0.62-2.05-8.28,3.7-8.28,3.7s-0.57,0.02-0.75,0.72c-0.18,0.71-19.12,10.63-19.12,10.63s-4.74,1.23-5.56,0.7
		C942.88,156.95,940.05,172.27,940.05,172.27z"/>
	<path class="st16" d="M982.89,122.96c0,0,8.14,1.77,8.14,11.68c0,1.71-0.35,3.03-0.93,4.03c-2.76,4.81-10.76,2.49-10.76,2.49
		s-8.32-3.51-6.9-10.59C973.86,123.49,978.51,120.56,982.89,122.96z"/>
	<path class="st17" d="M925.89,164.03l3.01,3.45l4.25-4.51v2.26l5.13-6.33c0,0-1.28-7.26,1.13-7.97c2.41-0.71,3.12,2.3,3.12,2.3
		l2.66-4.07c0,0,3.14-15.05-10.56-16.82l-4.32,1.06c0,0,3.01,8.67-1.95,11.15l-2.12,0.35l-6.2,5
		C920.05,149.91,923.05,162.44,925.89,164.03z"/>
	<path class="st18" d="M926.24,167.57c0,0-2.12,3.54,13.81,4.07v5.13l-10.45,3.54l-5.84-4.96
		C923.76,175.36,923.59,166.51,926.24,167.57z"/>
	<path class="st11" d="M925.89,164.03l0.35,3.54l-4.25,16.11l-3.72,1.06C918.27,184.75,915.09,167.4,925.89,164.03z"/>
	<path class="st19" d="M943.7,177.13l-2.06-3.01c0,0-12.92,5.31-17.17-2.48c0,0-6.2,4.25-6.2,10.8c0,6.55,2.48,24.25,3.72,28.86
		s2.31,13.67,0.89,17.88c-1.42,4.21,8.11,11.15,8.11,11.15h11.72l7.26-9.21c0,0-2.29-29.77,1.02-32.35l-5.09-8.2l0.71-5.84
		L943.7,177.13z"/>
	<path class="st20" d="M922.52,230.07c0,0,11.68,13.99,27.44,1.06c0,0,14.69,39.3,19.12,43.73c0,0,0.41,3.04-1.33,4.67
		c-1.74,1.63-19.21,20.29-25.05,20.64c-5.84,0.35-21.24-9.38-21.24-9.38s0-24.79-3.19-35.58
		C918.27,255.21,920.75,232.55,922.52,230.07z"/>
	<path class="st9" d="M956.34,173.9l27.8-21.99c0,0,0.17-9.13,1.41-8.95s1.39,6.95,1.39,6.95l2.89-4.47c0,0,3.34-4.07,4.57,1.95
		c1.24,6.02-31.34,36.47-31.34,36.47L956.34,173.9z"/>
	<path class="st18" d="M953.97,175.56l2.37-1.66c0,0,6.73,3.94,6.73,9.96l-3.01,3.98l-3.89-3.81l-3.19-7.79L953.97,175.56z"/>
	<path class="st11" d="M952.62,174.12c0,0,8.32,8.32,8.32,13.45c0,5.13-13.99,13.99-13.99,13.99s-12.3-2.74-5.49-21.95
		C950.18,174.12,952.62,174.12,952.62,174.12z"/>
	<path class="st21" d="M986.94,144.38c0,0,0.56,19.3,4.1,19.65c3.54,0.35,0.37-19.65,0.37-19.65"/>
</g>
<path class="st2" d="M659.93,547.91l135.18,59.59c0,0,8.17-18.18-16.52-25.44c-1.7-0.5-3.17-1.71-3.98-3.37
	c-11.89-24.23-26.12-32.37-42.23-40.27c-11.53-5.65-21.71,1.08-26.9,5.78c-6.17,5.58-15.81,4.28-20.14-3.12
	c-1.21-2.07-2.26-4.68-3.03-7.98c-1.64-6.98-7.74-12.04-14.49-11.39C655.37,522.93,656.09,541.52,659.93,547.91z"/>
<path class="st2" d="M1254.22,612.95l-140.05,62.22c0,0-7.67-19.84,17.78-27.28c1.76-0.51,3.29-1.79,4.18-3.58
	c13.01-26.06,27.82-34.63,44.54-42.9c11.96-5.92,22.1,1.55,27.23,6.73c6.09,6.16,15.97,4.92,20.65-3.03
	c1.31-2.22,2.47-5.04,3.38-8.59c1.92-7.53,8.33-12.91,15.2-12.09C1259.78,585.95,1258.37,606.1,1254.22,612.95z"/>
<path class="st22" d="M1070.64,91.31c0,0,34.7,3.4,35.01,47.22"/>
<g>
	<g>
		<path class="st23" d="M1071.88,364.44c-10.66,1.64-42.79,3.21-57.42-33.7c-2.54-6.4-3.59-13.31-3.21-20.18
			c1.49-27.04,9.6-16.96,10.7-37.92c1.21-23.08,8.5-78.96-4.86-112.98s13.36-92.32,44.95-92.32s69.24,15.79,69.24,76.53
			c0,28.02-2.33,43.37-4.83,51.78c-2.13,7.13-0.76,14.88,3.72,20.83c8.3,11.03,19.08,30.93,20.55,61.02
			c2.32,47.47-50.55,90.53-72.34,87.1C1076.22,364.26,1074.03,364.11,1071.88,364.44z"/>
		<line class="st24" x1="1072.96" y1="182.75" x2="1072.96" y2="425.71"/>
		<line class="st24" x1="1073.77" y1="239.03" x2="1102.52" y2="223.24"/>
		<line class="st24" x1="1047.32" y1="281.11" x2="1072.96" y2="295.32"/>
	</g>
	<ellipse class="st8" cx="1074.29" cy="426.52" rx="14.91" ry="6.43"/>
</g>
<ellipse class="st8" cx="1139.82" cy="449.36" rx="14.91" ry="6.43"/>
<g>
	<path class="st3" d="M1139.02,412.1c0,0,53.25,14.22,54.44-28.44c0.75-27.13-5.68-37.48-10.47-41.43
		c-3.43-2.83-5.65-6.87-6.11-11.3c-1.01-9.61-1.87-25.17,1.17-37.33c1.32-5.27,0.07-10.44-2.41-15.17
		c-12.64-24.07-46.84-24.36-61.38-1.38c-7.51,11.86-13.9,30.24-16.79,58.57C1087.99,428.69,1139.02,412.1,1139.02,412.1z"/>
	<line class="st24" x1="1142.11" y1="337.24" x2="1142.11" y2="459.5"/>
	<line class="st24" x1="1142.11" y1="355.23" x2="1158.3" y2="346.93"/>
	<path class="st25" d="M1145.08,271.44c0,0,25.3,5.58,21.01,32.96"/>
	<line class="st24" x1="1142.11" y1="385.06" x2="1128.83" y2="376.06"/>
</g>
<g>
	<path class="st26" d="M1110.99,299.07"/>
	<path class="st26" d="M1096.65,291.56"/>
	
		<ellipse transform="matrix(0.985 -0.1724 0.1724 0.985 -80.2067 194.3971)" class="st8" cx="1079.04" cy="558.95" rx="46.76" ry="12.38"/>
	
		<ellipse transform="matrix(0.985 -0.1724 0.1724 0.985 -70.4432 219.8767)" class="st2" cx="1230.61" cy="515.48" rx="67.57" ry="14.46"/>
	<path class="st27" d="M1160.33,378.19c0,0-12.78,1.43-1.63,12.27c0,0,8.16,4.32,11.15-4.11
		C1172.83,377.92,1160.33,378.19,1160.33,378.19z"/>
	<path class="st28" d="M1162.22,387.39c0,0-1.03,101.77-99.22,131.9"/>
	<path class="st9" d="M1189.54,492.19c0.06,4.27,0.34,14.43,1.58,20.2c0.22,1.04-0.37,2.08-1.42,2.51l-7.12,2.89
		c-0.25,0.1-0.48,0.24-0.68,0.41l-2.72,2.33c-0.5,0.43-0.79,1.03-0.79,1.67l0,0c0,1.25,1.09,2.27,2.44,2.27h16.12
		c0.49,0,0.97-0.14,1.38-0.4l3.88-2.46c0.67-0.42,1.06-1.12,1.06-1.87v-0.98v-27.82c0-1.39-1.33-2.45-2.8-2.24l-8.86,1.22
		C1190.41,490.08,1189.52,491.05,1189.54,492.19z"/>
	<path class="st9" d="M1238.04,473.98l20.02,17.03c0.21,0.18,0.44,0.33,0.68,0.46c1.05,0.57,4.58,3.23,7.48,14.06
		c0.25,0.94,0.88,1.76,1.74,2.25l0,0c2.11,1.2,4.81,0.12,5.47-2.18l1.43-5.02c0.13-0.46,0.17-0.94,0.11-1.42l-1.27-10.17
		c-0.07-0.52-0.24-1.02-0.53-1.47l-1.69-2.68c-0.15-0.23-0.32-0.45-0.51-0.64l-24.09-24.03c-1.86-1.85-5.05-1.27-6.1,1.12
		l-3.73,8.51C1236.42,471.25,1236.82,472.94,1238.04,473.98z"/>
	<path class="st29" d="M1200.83,519.84c-5.67,2.46-15.13,1.35-16.86,1.13c-0.2-0.03-0.38-0.1-0.54-0.21c-0.32-0.22-0.83-0.64-1-1.14
		c-0.23-0.66-0.89-1.06-1.55-0.83c-2.95,1.05-7.04,3.01-6.15,5.67c1.31,3.93,26.64,0.28,28.44,0.02c0.1-0.01,0.19-0.04,0.28-0.08
		c0.5-0.22,1.87-1.13,1.5-4.61c-0.09-0.84-0.97-1.35-1.74-1.01C1202.61,519.06,1201.84,519.4,1200.83,519.84z"/>
	<path class="st29" d="M1265.52,494.91c-0.83,0.64-1.28,1.66-1.18,2.7c0.4,4.12,1.87,14.29,6.64,14.07c5.98-0.27,5.98-5.3,5.98-5.3
		v-15.51c0-0.1,0-0.19-0.01-0.29c-0.09-0.92-0.79-5.47-5.42-7.18c-3.61-1.33-2.63,2.92-1.72,5.6c0.42,1.24,0.01,2.6-1.03,3.4
		L1265.52,494.91z"/>
	<path class="st27" d="M1263.91,392.87c0,0-3.53,11.15,8.16,11.96c11.69-2.17,2.99-6.8,2.99-6.8s-2.18-4.35-1.09-6.8
		C1275.05,388.8,1263.91,392.87,1263.91,392.87z"/>
	<path class="st30" d="M1082.3,533.73l3.3,4.82c0.37,0.53,0.8,1.01,1.23,1.49c0.5,0.55,0.83,1.73-2.5,3.45
		c-2.11,1.09-1.52,2.01-0.2,2.71c2.26,1.19,5,1,7.15-0.37l0.26-0.16l-2.45-14.14L1082.3,533.73z"/>
	<path class="st30" d="M1050.61,542.48c-2.03,0.75-3.02,3.03-2.18,5.02c1.81,4.3,4.09,11.4,0.97,14.33
		c-4.62,4.35,3.81,1.9,4.62,1.63c0.47-0.16,1.52-1.4,2.33-2.44c0.69-0.88,0.95-2.02,0.72-3.11c-0.91-4.24-3.16-15.1-2.51-16.19
		C1055,540.99,1052.79,541.68,1050.61,542.48z"/>
	<path class="st31" d="M1034.72,505.84c0,0-2.02-11.43,6.65-4.21C1042.88,500.02,1034.72,505.84,1034.72,505.84z"/>
	<path class="st32" d="M1097.8,498.09c0.01,0.02,4.61,5.59,0,12.03c0,0,0,0-0.01,0c-8.15,0-16.31,0.47-19.03,1.29
		c-2.72,0.82-11.96,7.34-16.04,5.17c-4.04-2.16-9.15-4.85-9.24-4.89c0,0,0,0,0-0.01v-6.25c0,0,0,0,0,0
		c-0.05-0.05-6.02-6.5-14.14-4.48c0,0,0,0,0,0c-0.01,0-6.25,2.2-6.25,6.6c0,4.4-5.98,9.46-5.98,9.46c0,0,0,0,0,0
		c0,0-7.88,2.55-2.45,7.44c5.43,4.89,11.14,1.82,11.15,1.81c0,0,0,0,0,0c0.01,0,5.43-3.44,7.61-1.81c0,0,0,0,0,0.01v4.35
		c0,0,0,0,0,0c0,0.01-1.09,14.95,5.98,17.4c7.06,2.44,9.97,3.26,9.98,3.26c0,0,0,0,0,0c0,0.02-3.44,14.1-1.56,16.03
		c0,0,0.01,0.01,0,0.01c-0.19-0.01-4.07-0.21-4.07,2.18c0,2.45,7.54,3.26,7.55,3.26c0,0,0,0,0,0c0-0.01,6.86-16.04,8.49-23.92
		c0,0,0,0,0,0c0.01,0,7.34,1.08,13.05-8.7c0,0,0,0,0,0c8.42-5.43,13.86,1.36,13.86,1.36c0,0,0,0,0,0c0,0,3.53,1.36,0.54,4.62
		c-2.99,3.26-4.62,7.07-3.26,7.88c0.34,0.2,0.88,0.36,1.49,0.47l7.23-1.39l0,0c1-0.61,1.62-1.7,1.62-2.87v-8.44c0,0,0-5.44-3.26-8.7
		c0,0,0,0,0,0c-0.58-2.13-0.42-3.35-0.04-4.05c1-1.84,1.56-3.89,1.31-5.96c-0.28-2.34-0.98-4.9-2.63-6.3c0,0,0,0,0,0
		c0.02-0.01,5.98-4.09,4.62-10.6C1102.96,497.82,1099.16,494.28,1097.8,498.09C1097.8,498.09,1097.79,498.09,1097.8,498.09z"/>
	<path class="st31" d="M1027.11,517.02c0,0,5.17,6.97-4.21,5.03C1022.9,522.05,1021.67,519.09,1027.11,517.02z"/>
	<path class="st33" d="M1062.72,516.57c0,0,4.08,14.68-19.3,13.59c0,0-4.62-2.99,0-5.71c5.17,0,12.23,3.81,15.22-10.06
		C1058.65,514.4,1062.47,513.6,1062.72,516.57z"/>
	<path class="st34" d="M1189.96,277.87c0,0,2.17-14.14,13.59-12.51c11.42,1.63,1.36,6.19,1.36,6.19s15.77-4.28,19.85,9.58
		c4.08,13.87-1.36,25.38,13.05,30.09c14.41,4.71,16.04,19.66,15.22,25.1c-0.82,5.44-14.14,17.94-18.22,16.58s-28.82-2.17-28.82-2.17
		l-16.04-16.04c0,0,2.8-18.57-6.37-37.01c-0.66-1.32-0.98-2.79-0.93-4.26C1183.23,276.29,1189.96,277.87,1189.96,277.87z"/>
	<path class="st9" d="M1225.01,327.62l-2.89-8.2c-0.12-0.33-0.37-0.6-0.69-0.72c-1.44-0.55-2.53-1.7-3.01-3.12
		c-0.94-2.77-2.77-8.14-3.52-10.35c-0.17-0.5,0-1.06,0.42-1.37c1.51-1.1,2.59-3.96,3.17-5.88c0.34-1.11,1.03-2.07,1.98-2.73
		c1.47-1.02,3.44-2.98,2.92-5.95c-0.7-3.96-4.79-3.93-5.95-3.84c-0.27,0.02-0.54,0.02-0.8,0c-0.01,0-0.02,0-0.03,0
		c-1.51-0.13-5.93-0.63-9.26-2.41c-1.71-0.91-2.7-2.59-3.28-4.23c-0.38-1.09-1.09-1.98-1.98-2.59c-0.06-0.04-0.14-0.07-0.22-0.07
		c-3.56,0.01-6.84,1.16-9.52,3.1c-4.09,2.96-6.75,7.77-6.75,13.21c0,4.79,2.06,9.09,5.34,12.07c0.01,0.01,0.03,0.03,0.04,0.04
		c0.63,0.9,1.53,1.56,2.57,1.89c0.02,0.01,0.04,0.01,0.05,0.02c2.24,1.33,4.82,2.13,7.58,2.25c0.17,0.01,0.31,0.12,0.34,0.29
		c0.13,0.69,0.6,1.9,1.04,2.89c0.26,0.58,0.07,1.27-0.45,1.64c-1.54,1.08-4.58,3.23-5.87,4.13c-0.37,0.26-0.59,0.69-0.59,1.14v12.31
		c0,0.36,0.14,0.71,0.39,0.97l11.66,12.15c0.55,0.57,1.45,0.57,2.01,0.01l14.96-15.21C1225.06,328.68,1225.19,328.12,1225.01,327.62
		z"/>
	<path class="st35" d="M1195.94,311.31c1.6-0.25,3.2,0.06,4.47,0.48c1.39,0.45,2.03,2.06,1.36,3.37c-2.1,4.13-5.52,12.86,1.24,15.73
		c7.3,3.1,15.32-6.58,18.05-10.3c0.61-0.82,1.67-1.18,2.65-0.88l4.88,1.49c0.35,0.11,0.66,0.29,0.93,0.53
		c2.22,2.05,12.87,11.95,14.82,14.87c2.17,3.26,30.07,52.44,29.63,54.65c0,0-1.33,13.28-11.59,5.19c-0.24-0.19-0.45-0.43-0.6-0.7
		c-6.26-11.03-11.51-30.79-28.23-50.68c-1.36-1.62-3.99-0.85-4.24,1.25c-1.17,10.05-3.66,30.8-4.28,31.62
		c-0.69,0.92-17.72,3.78-22.95,4.65c-0.93,0.15-1.85-0.25-2.38-1.02l-7.79-11.48c-0.03-0.05-0.06-0.1-0.09-0.15
		c-0.48-0.82-4.51-7.89-3.49-9.94c0.84-1.69-10.82,15.22-16.04,22.8c-0.97,1.4-3.05,1.39-3.98-0.05c-0.95-1.46-2.44-3-4.76-3.87
		c-1.46-0.55-2.06-2.29-1.16-3.57c4.66-6.67,12.3-18.1,16.18-20.93c0.73-0.53,1.12-1.43,0.88-2.3c-0.76-2.8,0.44-5.61,0.68-6.13
		c0.03-0.07,0.06-0.13,0.08-0.2c0.62-1.79,7.96-24.9,10.84-24.9"/>
	<path class="st36" d="M1190.03,366.54c3.88,1.95,25.25,12.03,36,2.49c0.24-0.21,0.36-0.51,0.36-0.83l0,0
		c0-0.96,1.14-1.47,1.86-0.83c2.81,2.51,7.68,10.28,6.3,33.65c-1.65,28.09-1.67,38.55-1.64,40.82c0,0.32,0.14,0.62,0.39,0.83
		l13.49,11.64c0,0,2.17,1.36,2.17,6.8c0,5.33-6.54,13.28-11.66,14.61c-0.2,0.05-0.41,0.05-0.6-0.02
		c-5.93-2.03-19.54-18.18-20.57-19.41c-0.04-0.05-0.08-0.08-0.12-0.12c-0.69-0.58-7.04-6.46-7.55-25.23
		c-0.42-15.41-0.52-22.13-0.54-24.37c0-0.52-0.37-0.97-0.88-1.07c-1.57-0.32-4.77-1.14-5.38-2.56c-0.78-1.82,1.68,82.25,1.89,89.25
		c0.01,0.32-0.11,0.62-0.34,0.83c-1.45,1.37-7.4,5.79-19.15-0.06c-0.37-0.19-0.61-0.57-0.61-0.98
		c-0.1-14.38-3.17-101.09-3.26-103.66c0-0.04,0-0.08,0-0.12c0.08-1.03,1.31-15.67,8.65-21.52
		C1189.17,366.4,1189.64,366.35,1190.03,366.54z"/>
	<path class="st31" d="M1043.42,506.38l7.07-4.76c0,0,2.72-2.58,4.89,2.38c2.18,4.96,0.54,7.41,3.26,10.4
		c2.72,2.99-2.99,4.89-2.99,4.89s-4.43-1.36-4.25-6.52C1051.58,507.6,1043.42,506.38,1043.42,506.38z"/>
</g>
<path class="st23" d="M651.03,565.42l154.58,63.66c0,0,9.51-19.81-18.75-27.51c-1.95-0.53-3.62-1.83-4.54-3.63
	c-13.45-26.24-29.7-34.97-48.12-43.41c-13.18-6.04-24.91,1.35-30.9,6.49c-7.12,6.11-18.17,4.78-23.07-3.22
	c-1.37-2.24-2.55-5.07-3.41-8.65c-1.82-7.57-8.79-13.02-16.53-12.25C646,538.31,646.68,558.51,651.03,565.42z"/>
<g>
	
		<ellipse transform="matrix(0.985 -0.1724 0.1724 0.985 -100.2327 169.2219)" class="st2" cx="924.1" cy="661.65" rx="106.48" ry="47.8"/>
	<path class="st37" d="M853.94,399.72c0,0-12.49,5.75-14.08,8.33c-1.59,2.58-1.19,25.38-1.19,25.38l-0.04,21.22l1.31,26.17
		l17.96,9.32l8.33,2.78l10.71-3.57l10.5,9.12l7.75-2.5c0,0,2.78-5.83,0-13.56c-2.78-7.73,1.23-12.29,1.23-12.29l1.34-21.02
		l-3.77-2.18c0,0-0.77-7.96-0.4-9.72l4.16-9.12L894,406.46l-10.11-6.74l-24.59-3.17l-2.97,4.56L853.94,399.72"/>
	<path class="st38" d="M885.47,402.49c0,0,11.3,24.39,8.13,34.7l10.31,2.97c0,0,0.99,0.99,0,4.96c-0.99,3.97,2.18,11.3,2.18,11.3
		l10.11,2.18l9.52-5.95V437.2c0,0,1.39-3.57-3.97-10.71l-28.95-31.33h-5.37C887.44,395.16,883.09,399.92,885.47,402.49z"/>
	<path d="M857.91,658.22v31.2c0,0-6.21,13.48-12.43,0c0,0-6.25-10.16-6.01-29.94C839.7,639.69,857.91,658.22,857.91,658.22z"/>
	<path d="M894.66,623.32c0,0,13.22,13.75,19.56,13.75s7.14-6.87,7.14-6.87l-5.55-16.92l-7.8-9.52l-12.73,8.14
		C895.28,611.9,889.98,618.83,894.66,623.32z"/>
	<path class="st36" d="M834.9,499.46c0,0,55.52,16.02,60.28-7.85l46.8,41.63l-30.14,82.02c0,0-8.05,12.44-15.72,1.47
		c-0.31-0.45-0.63-0.94-0.94-1.47c0,0,3.17-51.28,15.86-58.16l1.59-7.52c0,0-18.81-2.48-40.22-18.01c0,0,4.93,41.86,2.35,53.36
		c-2.58,11.5-11.5,48.18-11.5,57.9l0.59,13.88c0,0-14.52,7.44-24.39-1.59c-0.4-20.62,0.88-49.84,9.72-63.85
		c-2.38-10.91-12.1-51.56-16.26-65.83C832.92,525.44,832.53,502.84,834.9,499.46z"/>
	<path class="st32" d="M999.69,605.81c-0.59,1.94-1.73,3.53-3.35,4.75c-2.34,1.78-4.95,3.02-7.78,3.81
		c-0.81,0.22-0.83,0.31-0.41,1.05c0.5,0.88,1.15,1.68,1.71,2.52c0.76,1.12,1.42,2.27,1.93,3.54c0.7,1.71,0.89,3.6,1.93,5.2
		c0.49,4.79,1.23,9.6-0.1,14.37c-0.54,1.93-1.45,3.65-3.11,4.92c-0.78,0.6-1.5,1.28-2.18,2c-1.04,1.1-2.24,2-3.58,2.68
		c-1.31,0.66-2.51,1.5-3.86,2.11c-0.44,0.19-0.81,0.5-1.14,0.87c-0.33,0.38-0.66,0.8-1.11,1.03c-1.31,0.68-1.82,1.84-2.06,3.18
		c-0.13,0.68-0.06,1.37,0.46,1.85c0.72,0.68,1.26,1.51,1.99,2.19c0.94,0.86,1,2.06,0.22,3.17c-0.49,0.69-1.04,1.31-1.56,1.97
		c-0.5,0.63-1.22,0.75-1.93,0.8c-2.22,0.14-4.43,0.03-6.59-0.67c-1.76-3.66-3.25-7.4-3.14-11.52c0.08-3.15,0.8-6.17,2.36-8.95
		c0.6-1.05,0.59-1.05-0.43-1.65c-0.08-0.05-0.1-0.15-0.1-0.24c0.02-0.02,0.03-0.03,0.05-0.04c0.28-0.26,0.63-0.17,0.96-0.21
		c2.33-0.28,4.53-0.92,6.38-2.41c1.23-1,1.71-2.33,1.42-3.92c-0.12-0.64-0.46-0.93-1.11-0.92c-1.14,0.01-2.27,0.01-3.41,0
		c-0.56-0.01-0.9-0.07-1.05-0.25c-0.01,0-0.02-0.01-0.02-0.02c-0.16-0.2-0.09-0.56,0.18-1.14c0.71-1.49,1.66-2.84,2.45-4.28
		c0.28-0.5,0.51-1.02,0.82-1.5c0.96-1.55,0.8-2.99-0.3-4.4c-0.48-0.61-0.94-1.26-1.48-1.81c-2.15-2.21-4.24-4.48-6.59-6.48
		c-0.3-0.25-0.61-0.48-0.96-0.66c-0.93-0.5-1.36-0.26-1.38,0.78c-0.02,1.8,0,3.59-0.01,5.38c0,0.39,0.05,0.79-0.16,1.15
		c-0.04,0.02-0.06,0.04-0.09,0.05c-0.2,0.09-0.39,0.05-0.55-0.04c-0.11-0.05-0.21-0.11-0.32-0.16c-0.01-0.01-0.01-0.01-0.02-0.01
		c-0.02-0.01-0.04-0.02-0.05-0.03c-1.35-1.09-3.08-1.24-4.62-1.87c-0.28-0.11-0.55-0.19-0.83-0.22c-0.55-0.08-1.1,0-1.67,0.27
		c-0.6,0.28-1.31-0.05-1.93,0.24c-0.21,0.1-0.48,0.07-0.63,0.3c-0.17,0.26-0.35,0.5-0.51,0.76c-0.14,0.19-0.27,0.39-0.4,0.6
		c-0.06,0.09-0.12,0.18-0.17,0.28c-0.05,0.07-0.09,0.14-0.13,0.21c-0.23,0.37-0.43,0.75-0.6,1.15c-0.18,0.4-0.32,0.82-0.42,1.27
		c0,0.01,0,0.02-0.01,0.03c-0.06,0.24-0.16,0.47-0.27,0.71c-0.02,0.02-0.03,0.05-0.04,0.07c-0.13,0.27-0.25,0.54-0.31,0.84
		c-0.01,0.06-0.04,0.13-0.07,0.17c-0.16,0.23-0.5,0.29-0.8,0.33c-0.6,0.08-1.17,0.28-1.74,0.47c-0.02,0.01-0.04,0.02-0.06,0.02
		c-0.46,0.16-0.91,0.31-1.38,0.41c-0.3,0.07-0.56,0.18-0.79,0.33c-0.01,0-0.03,0.01-0.04,0.03c-0.17,0.11-0.31,0.24-0.46,0.39
		c-0.02,0.01-0.04,0.03-0.05,0.05c-0.35,0.36-0.63,0.78-0.94,1.18c-0.07,0.1-0.15,0.2-0.23,0.29c-1.01,1.25-1.37,2.75-1.59,4.28
		c-0.05,0.27-0.07,0.53-0.11,0.8c-0.84,1.43-1.07,3.03-1.26,4.64c-0.45,4.05-0.56,8.12-0.37,12.2c0.11,2.3,0.37,4.59,0.87,6.85
		c0.09,0.41,0.23,0.8,0.4,1.18c1.98,4.34,2.04,8.62-0.43,12.81c-0.17,0.28-0.28,0.6-0.39,0.91c-2.22,6.54-4.45,13.08-6.68,19.62
		c-0.17,0.49-0.16,0.89,0.05,1.36c0.38,0.8,0.57,1.64,0.59,2.52c0.03,1.64-0.68,2.88-2.05,3.75c-1.01,0.63-2.13,0.98-3.28,1.15
		c-3.55,0.5-7.06,0.37-10.46-0.84c-2.71-0.97-4.89-2.63-6.21-5.26c-0.5-1.01-0.83-2.05-0.71-3.2c0.16-1.4,0.87-2.4,2.14-3
		c0.83-0.39,1.71-0.54,2.61-0.58c1.6-0.06,3.16,0.2,4.75,0.28c1.63,0.07,3.24-0.12,4.76-0.79c1.74-1.93,2.26-4.2,2.51-6.51
		c0.37-3.58,0.17-7.18-0.11-10.76c-0.1-1.16-0.29-2.3-0.12-3.47c-2.1-7.42-4.32-14.83-7.57-21.83c-0.79-1.69-1.65-3.32-2.73-4.84
		c-0.41-0.6-0.86-1.16-1.38-1.65c-0.39-0.38-0.81-0.76-1.32-0.91c-0.92-0.26-1.36-0.93-1.67-1.73c-0.51-1.29-0.74-2.65-0.89-4.02
		c-0.57-5.19-0.45-10.41-0.28-15.61c0.1-2.93,0.25-5.87,0.45-8.79c0.19-2.81,0.41-5.62,0.64-8.43c0.06-0.76-0.06-1.56,0.22-2.3
		c0.28,0.2,0.23,0.5,0.14,0.99c2.86-6.65,5.1-13.15,6.9-19.89c0.1-3.81-0.66-7.46-1.66-11.07c-0.35-1.27-0.78-2.52-1.2-3.77
		c-0.17-0.52-0.16-0.96,0.22-1.42c1.9-2.27,2.82-5.03,3.86-7.93c-0.8,0.31-1.47,0.51-2.15,0.65c-1.17,0.23-2.27-0.02-3.32-0.5
		c-0.76-0.34-0.88-0.67-0.5-1.43c0.51-1.05,1.02-2.1,1.36-3.22c0.16-0.54,0.1-0.81-0.54-0.71c-2.37,0.38-4.21-1.74-5.13-3.3
		c-0.29-0.5-0.16-0.85,0.47-0.93c1.02-0.11,1.77-0.68,2.42-1.41c0.12-0.14,0.29-0.27,0.21-0.47c-0.09-0.19-0.3-0.16-0.48-0.16
		c-1.14-0.04-2.27,0.01-3.41-0.16c-2.92-0.43-5.5-1.59-7.69-3.58c-0.43-0.39-0.8-0.83-0.98-1.38c-0.18-0.38-0.57-0.52-0.88-0.74
		c-4.86-3.47-9.24-7.45-12.56-12.6c-0.61-0.95-1.03-2.03-1.4-3.1c-0.84-2.37-2.03-4.6-3.05-6.89c-3.03-6.73-6.07-13.45-8.66-20.36
		c-2.08,0.35-4.15,0.72-6.23,1.04c-1.87,0.29-3.4-0.47-4.71-1.71c-0.72-0.68-0.8-1.58-0.5-2.5c0.24-0.76,0.67-1.4,1.2-1.98
		c1.19-1.32,2.49-2.49,4.09-3.33c1.06-0.55,2.1-1.15,3.14-1.72c2.37-1.31,4.93-1.61,7.56-1.26c1.56,0.21,2.7,1.03,3.18,2.65
		c0.3,1.01,0.9,1.89,1.48,2.76c2.04,3.12,4.4,5.99,6.78,8.84c2.15,2.58,4.35,5.1,6.6,7.59c0.44,0.49,0.94,0.83,1.56,1.02
		c0.89,0.27,1.51-0.01,1.9-0.85c0.19-0.41,0.29-0.85,0.33-1.3c0.02-0.3,0.03-0.61,0.03-0.9c-0.11-4.47,0.35-8.91,0.83-13.35
		c0.3-2.82,0.62-5.65,1.06-8.44c-3.03-4.57-6.01-9.15-9-13.73c-0.61-0.93-0.49-1.88-0.08-2.84c0.16-0.47,0.06-0.95,0.08-1.42
		c0-0.28-0.08-0.54-0.31-0.72c-1.76-1.31-2.04-3.23-2.09-5.21c-0.05-1.94,0.24-3.87,0.59-5.79c0.34-1.88,0.78-3.73,1.29-5.57
		c0.05-0.17,0.06-0.36,0.08-0.53c0.4-0.26,0.81-0.05,1.21,0.01c1.82,0.26,3.64,0.67,5.51,0.32c1.6-0.29,1.91-0.61,2.12-2.22
		c0.01-0.09,0.06-0.17,0.12-0.24c1.57,1.04,2.8,2.41,3.85,3.95c0.51,0.73,0.96,1.5,1.45,2.26c0.58,0.9,1.37,1.58,2.26,2.14
		c1.74,1.08,4.07,0.38,4.73-2.19c0.1-0.41,0.31-0.71,0.68-0.88c0.36-0.17,0.73-0.25,1.13-0.28c1.35-0.09,2.68,0.05,4.01,0.28
		c0.27,0.05,0.57,0.28,0.81-0.08c4.13,1.86,7.86,4.19,9.94,8.46c0.06,0.13,0.14,0.27,0.18,0.4c0.4,1.37,0.77,2.74,1.92,3.72
		c0.27,3.14,0.2,6.28,0.22,9.42c0.02,3.66-0.11,7.31-0.44,10.95c-0.17,1.78-0.39,3.55-0.69,5.31c2.28,3,4.47,6.06,6.81,9.01
		c1.56,1.98,2.48,4.21,3.05,6.62c0.62,2.54,0.81,5.13,0.86,7.75c0.06,2.69,0.01,5.39,0.1,8.08c0.22,6.23,0.74,12.44,2.9,18.46
		c0.09,0.25,0.2,0.5,0.33,0.72c1.68,3.01,4.06,5.55,4.68,9.24c0.49,2.88,1.67,5.59,3.78,7.62c6.57,6.34,9.99,13.87,12.18,21.93
		c1,3.65,1.64,7.35,1.78,11.14c0.07,1.95-0.09,3.89-0.43,5.8c-0.03,0.16-0.07,0.33-0.09,0.5c-0.06,0.39-0.04,0.78,0.36,1
		c0.02,0,0.04,0,0.05,0.02c0.01,0.01,0.01,0.03,0.02,0.04v0.01c-0.01,0.15-0.21,0.47-0.03,0.2c-0.32,1.72-0.3,3.08,0.91,4.67
		c1.25,1.64,2.7,2.75,4.64,3.33c0.6,0.17,1.21,0.39,1.77,0.66c2.53,1.26,5.23,1.44,7.98,1.29c2.38-0.14,4.78-0.29,7.1-0.97
		c1.47-0.43,2.89-1.01,4.29-1.6c0.64-0.27,1.3-0.44,1.96-0.63c0.53-0.16,0.78,0.06,0.91,0.56
		C999.77,604.68,999.85,605.25,999.69,605.81z"/>
	<path class="st39" d="M1000.68,602.61c-0.01,0.9-0.13,1.79-0.35,2.67c-0.7,2.82-2.27,5.04-4.57,6.78
		c-1.77,1.32-3.76,2.21-5.87,2.84c-0.26,0.07-0.52,0.11-0.79,0.28c0.26,0.37,0.52,0.73,0.78,1.1c1.53,2.23,2.55,4.68,3.39,7.21
		c1.38,4.17,2.06,8.58,1.78,12.96c-0.15,2.2-0.5,4.36-1.36,6.41c-0.82,1.94-2.08,3.45-3.89,4.66c-3.09,2.07-6.19,4.11-9.31,6.12
		c-0.94,0.61-1.76,1.35-2.39,2.27c-0.72,1.06-1.08,2.2-0.68,3.48c0.16,0.5,0.39,0.93,0.82,1.26c0.61,0.48,1.17,1.03,1.62,1.68
		c0.68,0.99,0.8,1.97,0.17,3.1c-1.05,1.91-2.77,2.65-4.79,2.88c-1.86,0.21-3.7,0-5.54-0.38c-0.68-0.15-0.71-0.15-0.83,0.57
		c-0.29,1.82-0.56,3.66-0.84,5.48c-0.49,3.03-0.81,6.08-1.46,9.08c-0.49,2.23-1.47,4.23-3.16,5.82c-1.26,1.19-2.75,1.85-4.46,2.1
		c-1.71,0.25-3.38-0.05-5.07-0.18c-1.82-0.14-3.61-0.46-5.37-0.94c-0.83-0.23-1.65-0.5-2.43-0.88c-0.27-0.13-0.5-0.26-0.57-0.62
		c-0.49-2.81-0.74-5.62-0.31-8.46c0.06-0.41,0.22-0.81,0.39-1.18c0.35-0.77,0.94-1.23,1.75-1.38c0.71-0.14,1.41-0.3,2.14-0.24
		c1.02,0.09,1.98-0.22,2.97-0.29c0.38-0.03,0.71,0.03,1.05,0.14c1.54,0.48,2.69,0.05,3.38-1.46c0.79-1.71,1.19-3.5,1.45-5.34
		c0.28-1.91,0.31-3.82,0.14-5.73c-0.29-3.28-1.05-6.48-2.37-9.51c-1.73-3.98-3.82-7.77-6.34-11.32c-0.81-1.15-1.7-2.24-2.83-3.09
		c-0.23-0.17-0.33-0.41-0.46-0.64c-0.64-1.08-1.31-2.15-2.32-2.93c-0.74-0.59-1.19-0.59-2.02-0.06c-0.04-0.04-0.06-0.08-0.09-0.12
		v-0.01c-0.06-0.09-0.1-0.19-0.12-0.28c-0.13-0.45,0.11-0.92,0.18-1.36c0.18-1.15,0.79-2.18,1.42-3.08
		c0.46-0.65,0.98-1.29,1.65-1.75c0.01-0.02,0.03-0.03,0.04-0.03c0.42-0.28,0.89-0.49,1.46-0.58c0.24-0.04,0.48-0.1,0.71-0.17
		c0.03,0,0.05-0.01,0.06-0.02c0.69-0.19,1.37-0.45,2.09-0.49c0.2-0.01,0.39-0.16,0.45-0.31c0.01-0.02,0.02-0.04,0.02-0.05
		c0.04-0.35,0.2-0.66,0.37-0.96c0.01-0.03,0.02-0.05,0.04-0.07c0.12-0.24,0.23-0.48,0.27-0.71c0.01-0.01,0.01-0.02,0.01-0.03
		c0.01-0.04,0.01-0.07,0.01-0.11c0.01-0.44,0.19-0.81,0.41-1.16c0.23-0.38,0.5-0.73,0.6-1.15c0.04-0.16,0.06-0.31,0.04-0.49
		c0.25-0.16,0.46-0.37,0.67-0.6c0.59-0.63,1.14-1.34,2.26-1.12c0.35,0.07,0.73,0.01,1.05-0.15c0.49-0.25,0.97-0.32,1.44-0.3
		c0.63,0.02,1.26,0.24,1.84,0.49c1.23,0.51,2.61,0.64,3.66,1.56l0.01,0.01c0.01,0.01,0.03,0.02,0.04,0.03
		c0.09,0.07,0.19,0.14,0.29,0.2c0.16,0.1,0.32,0.2,0.46,0.33c0.05,0.04,0.09,0.08,0.13,0.14c0.05,0.07,0.11,0.16,0.15,0.25
		c0.09,0.32,0.09,0.65,0.08,0.97c-0.07,3.49,0.14,6.99-0.15,10.48c-0.16,1.93,0.72,3.61,1.75,5.17c0.58,0.87,1.25,1.68,1.97,2.44
		c0.24,0.26,0.54,0.49,0.5,0.91c0.13,0.28,0.38,0.21,0.61,0.24c0.75,0.09,0.9,0.35,0.56,1c-0.22,0.42-0.49,0.83-0.71,1.25
		c-1.09,2.15-1.79,4.41-1.96,6.84c-0.06,0.73-0.19,1.49-0.13,2.23c0.16,1.92,0.18,3.88,1.12,5.66c0.17,0.33,0.13,0.7,0.23,1.05
		c0.36,1.12,0.9,2.15,1.36,3.22c0.26,0.59,0.79,0.89,1.39,1.03c1.73,0.38,3.49,0.42,5.25,0.35c0.92-0.04,1.75-0.27,2.25-1.19
		c0.26-0.5,0.71-0.88,1.07-1.31c0.94-1.12,0.81-2.39-0.35-3.27c-0.19-0.15-0.34-0.33-0.49-0.52c-0.38-0.49-0.7-1.03-1.26-1.38
		c-0.47-0.29-0.75-1.6-0.54-2.14c0.18-0.48,0.4-0.94,0.38-1.47c-0.01-0.27,0.15-0.44,0.32-0.61c0.37-0.36,0.7-0.73,1.16-0.99
		c0.53-0.29,0.97-0.71,1.34-1.17c0.38-0.49,0.88-0.79,1.41-1.07c1.63-0.87,3.27-1.73,4.89-2.64c0.44-0.24,0.86-0.55,1.21-0.91
		c0.94-1,2.05-1.82,2.93-2.88c0.05-0.05,0.09-0.09,0.14-0.12c1.58-0.83,2.21-2.38,2.95-3.83c0.5-0.97,0.52-2.08,0.72-3.13
		c0.41-2.15,0.38-4.34,0.38-6.52c0-0.79-0.3-1.51-0.41-2.28c-0.1-0.69-0.13-1.37-0.12-2.05c0.02-0.9-0.21-1.71-0.67-2.47
		c-0.3-0.5-0.48-1.05-0.6-1.63c-0.39-1.69-1.57-4.27-2.53-5.72c-0.49-0.74-1.02-1.48-1.55-2.19c-0.33-0.45-0.57-0.96-0.85-1.44
		c0.16-0.28,0.42-0.36,0.68-0.42c1.48-0.39,2.92-0.86,4.31-1.5c1.63-0.76,3.13-1.77,4.52-2.89c0.74-0.6,1.4-1.45,1.82-2.29
		c0.58-1.17,1.3-2.46,0.47-3.85c-1.73,0.32-3.27,1.19-4.93,1.75c-1.72,0.6-3.45,1.1-5.29,1.25c-1.75,0.15-3.49,0.3-5.24,0.33
		c-1.62,0.03-4.2-0.44-5.69-1.05c-1.27-0.51-2.57-0.94-3.84-1.44c-1.23-0.48-2.26-1.22-2.96-2.36c-0.43-0.71-1.05-1.28-1.37-2.08
		c-0.18-0.47-0.27-0.9-0.18-1.38c0.09-0.56,0.22-1.12,0.16-1.69c-0.02-0.24-0.38-1.36-0.17-1.47c0.01-0.01,0.02-0.01,0.03-0.01
		c0.09,0.15,0.25,0.6,0.38,1.03c0.01,0.01,0.01,0.03,0.02,0.04v0.01c0.11,0.37,0.2,0.72,0.21,0.85c0.06,1.82,0.78,3.36,2.06,4.64
		c1.23,1.23,2.7,2.11,4.31,2.7c3.19,1.16,6.45,1.99,9.91,1.7c2.71-0.23,5.3-0.93,7.81-1.92c1.67-0.67,3.28-1.46,4.82-2.38
		c0.13-0.07,0.26-0.16,0.39-0.23C1000.28,601.65,1000.68,601.88,1000.68,602.61z"/>
	<path class="st40" d="M902.43,540.31c0.1,0.07,0.22,0.12,0.29,0.21c2.03,2.52,4.77,3.81,7.86,4.43c1.29,0.26,2.61,0.26,3.93,0.22
		c0.32-0.01,0.65-0.09,1.06,0.13c-0.82,1.45-1.92,2.38-3.64,2.43c-0.01,0.36,0.18,0.6,0.34,0.85c0.52,0.85,1.24,1.55,2,2.16
		c0.94,0.75,2.07,0.87,3.24,0.63c0.14-0.03,0.28-0.11,0.49,0.02c-0.12,1.01-0.48,1.97-0.89,2.91c-0.24,0.55-0.51,1.09-0.81,1.6
		c-0.25,0.43-0.11,0.64,0.29,0.83c1.38,0.66,2.78,0.82,4.25,0.36c0.51-0.16,1.02-0.33,1.59-0.61c0.02,0.57-0.22,1.01-0.38,1.46
		c-0.79,2.23-1.65,4.42-3.02,6.37c-0.07,0.1-0.11,0.24-0.2,0.3c-0.86,0.55-0.63,1.25-0.35,2.02c1,2.72,1.72,5.53,2.25,8.37
		c0.3,1.61,0.51,3.25,0.4,4.89c-0.12,1.73-0.53,3.41-1.01,5.07c-1.44,4.97-3.27,9.8-5.16,14.61c-0.22,0.55-0.55,1.04-0.97,1.61
		c-0.03-0.49-0.04-0.86-0.06-1.23c0.04-1.8,0.3-3.58,0.44-5.37c0.17-2,0.44-3.98,0.62-5.98c0.08-0.88,0.4-1.69,0.58-2.53
		c1.1-5.11,0.82-10.17-0.57-15.19c-1.34-4.86-3.52-9.31-6.42-13.45c-1.79-2.55-3.13-5.37-4.36-8.23c-0.71-1.65-1.31-3.34-1.69-5.1
		c-0.21-0.97-0.33-1.95-0.27-2.94C902.28,540.88,902.25,540.57,902.43,540.31z"/>
	<path class="st40" d="M934.64,463.01c-0.38-0.29-0.75-0.58-1.13-0.87c-0.34-0.26-0.41-0.66-0.48-1.03
		c-0.39-2.06-1.41-3.78-2.81-5.3c-1.85-2.01-4.09-3.46-6.52-4.65c-0.4-0.2-0.83-0.35-1.1-0.74c-0.33-1.05-0.03-1.99,0.49-2.89
		c1.17-1.72,3.05-1.98,4.86-2.36c1.09-0.23,2.19-0.13,3.29,0.02c2.05-0.06,4.06,0.17,6.03,0.74c0.6,0.17,1.19,0.4,1.74,0.71
		c1.1,0.62,1.51,1.61,1.39,2.79c-0.11,1.12-0.78,1.84-1.84,2.2c-1.11,0.38-2.23,0.67-3.4,0.78c-1.12,0.1-1.12,0.11-1.05,1.19
		c0.17,2.75,0.36,5.5,0.53,8.24C934.66,462.23,934.64,462.62,934.64,463.01z"/>
	<path class="st40" d="M903.69,445.23c-0.03,0.43,0.28,0.81,0.08,1.3c-0.33,0.84-1.03,1.18-1.77,1.33c-1.18,0.24-2.38,0.28-3.61,0.1
		c-1.23-0.18-2.46-0.32-3.66-0.6c-0.47-0.54-0.5-0.75-0.14-1.22c1.13-1.45,2.56-2.37,4.45-2.4c0.8-0.01,1.6-0.11,2.41-0.02
		C902.48,443.83,903.26,444.26,903.69,445.23z"/>
	<path class="st41" d="M895.09,466.59c0.08,0.95-0.06,1.9,0.08,2.84c-1.82,0.24-3.03,1.43-3.5,3.45c-0.07,0.32-0.11,0.65-0.19,0.96
		c-0.08,0.32-0.19,0.63-0.3,0.93c-0.09,0.25-0.22,0.56-0.51,0.57c-0.36,0.02-0.45-0.34-0.57-0.61c-0.67-1.54-0.61-3.02,0.39-4.41
		C891.69,468.68,893.27,467.49,895.09,466.59z"/>
	<path class="st42" d="M962.67,623.92c-0.85-0.48-1.77-0.79-2.7-1.11c-0.78-0.27-1.54-0.6-2.35-0.8c-0.37-0.09-0.74-0.1-1.05,0.04
		c-0.81,0.38-1.65,0.45-2.51,0.42c-0.38-0.01-0.69,0.05-0.91,0.42c-0.12,0.2-0.31,0.37-0.5,0.51c-0.45,0.36-1.03,0.63-0.85,1.38
		c-0.63,0.72-0.78,1.64-1.12,2.49c-0.15,0.37-0.35,0.72-0.43,1.13c-0.09,0.49-0.34,0.83-0.89,0.82c-1.03-0.01-1.95,0.51-2.96,0.64
		c-0.21,0.03-0.4,0.12-0.56,0.26c-0.04,0.04-0.08,0.09-0.11,0.14c-0.24,0.5-1.06,0.09-1.11,0.55c-0.07,0.56-0.34,0.78-0.75,0.98
		c-0.05,0.03-0.14,0.07-0.14,0.1c0.09,0.94-0.91,1.31-1.11,2.14c-0.18,0.77-0.46,1.53-0.58,2.32c-0.03,0.18-0.08,0.35,0.09,0.49
		c-0.07,0.16-0.15,0.3-0.31,0.38c-0.06-0.07-0.17-0.15-0.16-0.2c0.18-0.71-0.01-1.48,0.38-2.16c0.12-0.2,0.17-0.45,0.18-0.68
		c0.02-0.57,0.23-1.04,0.68-1.4c0.19-0.15,0.33-0.34,0.34-0.61c0-0.03,0.01-0.06,0.01-0.09c0.02-0.15,0.08-0.34,0.21-0.38
		c0.82-0.23,0.7-1.27,1.51-1.6c1.43-0.59,2.87-1.1,4.4-1.35c0.34-0.06,0.64-0.19,0.57-0.63c-0.01-0.09-0.05-0.21-0.01-0.26
		c0.63-0.79,0.45-1.93,1.14-2.69c0.24-0.26,0.44-0.54,0.37-0.96c-0.04-0.27,0.15-0.5,0.4-0.65c0.39-0.24,0.74-0.51,0.77-1.03
		c0.01-0.16,0.11-0.34,0.25-0.34c0.59,0.02,1.08-0.51,1.72-0.3c0.41,0.13,0.81-0.02,1.21-0.2c0.57-0.26,1.09-0.31,1.78-0.06
		c1.1,0.39,2.22,0.8,3.38,1.05c0.66,0.14,1.24,0.54,1.72,1.04c0.05,0.04,0.06,0.08,0.04,0.12
		C962.7,623.9,962.69,623.92,962.67,623.92z"/>
	<path class="st43" d="M931.24,445.19c-1.67-0.04-3.3,0.17-4.91,0.58c-1.23,0.32-2.28,0.95-3.24,1.76c0.62-1.57,1.86-2.41,3.44-2.65
		C928.11,444.64,929.69,444.81,931.24,445.19z"/>
	<path class="st40" d="M918.08,469.97c0,0.81-0.04,1.62,0.01,2.42c0.06,0.97-0.17,1.9-0.21,2.85c-0.02,0.53-0.36,0.99-0.74,1.3
		c-0.8,0.65-1.7,1.09-2.79,1.03c-0.52-0.03-0.99-0.18-1.24-0.6c-0.6-0.99-1.58-1.54-2.45-2.19c-0.98-0.73-1.98-1.45-2.88-2.26
		c-0.97-0.88-1.86-1.86-2.14-3.23c-0.12-0.59-0.61-0.88-1.12-1.07c-0.9-0.33-1.81-0.6-2.79-0.56c-0.99,0.04-1.98,0.02-2.96,0.01
		c-0.73-0.01-0.76-0.1-0.84-0.84c-0.16-1.59,0.35-2.94,1.34-4.14c0.14-0.16,0.29-0.29,0.47-0.41c1.37-0.96,2.64-2.03,3.85-3.2
		c0.71-0.68,1.53-1.21,2.51-1.5c0.76-0.23,1.42-0.06,2.08,0.21c0.89,0.36,1.68,0.91,2.46,1.46c2.06,1.46,4.26,2.64,6.74,3.21
		c0.36,0.08,0.51,0.27,0.52,0.61c0,0.06,0,0.12,0,0.18C917.84,465.5,918.27,467.73,918.08,469.97z"/>
	<path class="st44" d="M963.59,624.53c-0.01,0.04-0.02,0.07-0.03,0.11c-0.35-0.17-0.71-0.33-0.9-0.72c0-0.01,0-0.01,0-0.02v-0.17
		c0.34,0.03,0.6,0.24,0.89,0.37C963.59,624.24,963.61,624.38,963.59,624.53z"/>
	<g>
		<path class="st7" d="M970.4,652c0.52,0.8,0.95,1.68,1.19,2.61c0.25,0.92,0.25,1.95-0.22,2.81c-0.49,0.86-1.46,1.26-1.97,2.08
			c-0.26,0.39-0.43,0.87-0.38,1.35c0.04,0.48,0.28,0.93,0.63,1.25c-0.35-0.33-0.59-0.77-0.64-1.25c-0.06-0.48,0.11-0.97,0.37-1.37
			c0.51-0.84,1.48-1.25,1.95-2.09c0.47-0.84,0.48-1.86,0.24-2.78C971.34,653.68,970.92,652.81,970.4,652z"/>
	</g>
	<g>
		<path class="st7" d="M960.39,596.52c0.59,1.01,1.04,2.09,1.35,3.22c0.29,1.12,0.43,2.32,0.16,3.47c-0.1,0.28-0.17,0.56-0.29,0.83
			l-0.45,0.75c-0.39,0.43-0.8,0.86-1.32,1.14c-0.47,0.36-1.06,0.49-1.59,0.73c-0.56,0.16-1.14,0.26-1.7,0.39
			c0.57-0.14,1.14-0.24,1.7-0.4c0.53-0.24,1.11-0.37,1.58-0.74c0.52-0.28,0.91-0.71,1.3-1.14l0.44-0.75
			c0.11-0.27,0.18-0.55,0.28-0.82c0.28-1.13,0.15-2.32-0.13-3.45C961.42,598.62,960.97,597.53,960.39,596.52z"/>
	</g>
	<g>
		<path class="st7" d="M929.88,651.74c0.69-0.44,1.1-1.2,1.44-1.92c0.34-0.74,0.57-1.52,0.78-2.31c0.38-1.58,0.58-3.2,0.71-4.82
			c0.15-1.61,0.46-3.28,1.43-4.61c0.47-0.66,1.14-1.2,1.92-1.45c0.77-0.26,1.62-0.26,2.4-0.03c-0.78-0.23-1.63-0.22-2.4,0.04
			c-0.77,0.25-1.43,0.79-1.9,1.45c-0.95,1.33-1.26,3-1.4,4.6c-0.14,1.62-0.35,3.24-0.74,4.82c-0.21,0.79-0.45,1.57-0.79,2.31
			C930.98,650.54,930.57,651.3,929.88,651.74z"/>
	</g>
	<path class="st7" d="M948.77,590.24c0,0-0.34,2.85,2.83,6.28C951.6,596.52,950.98,591.66,948.77,590.24z"/>
	<path class="st7" d="M938.67,560.53c0,0,0.64,2.79,4.79,4.95C943.46,565.48,941.23,561.11,938.67,560.53z"/>
	<path class="st40" d="M946.05,572.37c0,0-1.32,3.39,2.61,6.47C948.67,578.84,949.07,573.38,946.05,572.37z"/>
	<path class="st7" d="M933.73,545.92c0,0-0.52,3.6,4.01,5.71C937.75,551.63,936.91,546.23,933.73,545.92z"/>
	<path class="st40" d="M940.77,542.69c0,0-1.32,3.39,2.61,6.47C943.39,549.16,943.79,543.7,940.77,542.69z"/>
	<path class="st40" d="M933.56,579.98c0,0-0.42,3.61,4.17,5.6C937.73,585.58,936.74,580.2,933.56,579.98z"/>
	<path class="st40" d="M928.78,555.71c0,0-0.42,3.61,4.17,5.6C932.95,561.31,931.96,555.93,928.78,555.71z"/>
	<path class="st40" d="M928.71,525.7l7.95,5.5l-3.64,7.84c0,0-1.47-6.77-0.64-8.5C932.37,530.53,928.52,529.47,928.71,525.7z"/>
	<path class="st7" d="M926.79,587.59c0,0-1.06,5.65-0.82,11.57C925.97,599.16,928.49,598.87,926.79,587.59z"/>
	<path class="st7" d="M914.79,517.62c0,0,1.21,2.17,3.95,3.3c0,0,0.66,2.49,0.91,3.95l-9.73-7.87
		C909.91,517,914.56,519.49,914.79,517.62z"/>
	<path class="st40" d="M897.35,524.35c0,0,0.78,5.52,3.48,9.09"/>
	<path class="st7" d="M934.82,520.94c0,0,5.25,3.5,5.25,7.95"/>
	<g>
		<path class="st7" d="M937.21,667.62c-0.86,1.43-1.32,3.11-1.31,4.77c0,0.83,0.09,1.67,0.33,2.47c0.21,0.81,0.58,1.57,0.98,2.3
			c-0.4-0.73-0.78-1.48-1-2.29c-0.25-0.8-0.35-1.64-0.36-2.48C935.85,670.72,936.34,669.04,937.21,667.62z"/>
	</g>
	<path class="st45" d="M933.72,619.11c0,0,4.34,5.52,1.11,9.33"/>
	<g>
		<g>
			<path class="st46" d="M917.41,639.21c-0.03,0.84-0.33,1.74-0.2,2.58c0.11,0.73,0.58,1.34,1.06,1.88
				c0.02,0.02,0.06-0.01,0.04-0.04c-0.61-0.7-1.1-1.42-1.06-2.39c0.03-0.68,0.2-1.34,0.22-2.03
				C917.46,639.18,917.41,639.18,917.41,639.21L917.41,639.21z"/>
		</g>
	</g>
	<g>
		<path class="st40" d="M924.41,561.03c0,0.97,0,1.85,0.27,2.79c0.35-0.41,0.15-1.47,0.15-1.94c0-0.46,0-0.91,0-1.37
			c0,0.87,0,1.74,0,2.61c0-0.24,0-0.48,0-0.72c0,0.62-0.21,1.6,0.05,2.17c0.18-0.46,0.18-0.94,0.16-1.42"/>
	</g>
	<g>
		<path class="st47" d="M924.62,536.52c0.1,0.32-0.06,0.78-0.35,0.94c-0.09-0.03-0.19-0.07-0.28-0.1"/>
		<g>
			<path class="st46" d="M924.59,536.53c0.08,0.38-0.11,0.99-0.6,0.81c-0.03-0.01-0.04,0.04-0.01,0.05c0.28,0.1,0.33,0.14,0.52-0.11
				c0.16-0.22,0.2-0.5,0.15-0.77C924.64,536.49,924.59,536.5,924.59,536.53L924.59,536.53z"/>
		</g>
	</g>
	<polygon class="st48" points="857.52,388.45 855.92,397.93 856.72,406.06 867.23,415.58 878.33,414.39 881.5,397.93 868.43,390.6 	
		"/>
	<polygon class="st49" points="869.8,421.73 880.11,440.76 882.02,420.34 875.91,414.65 	"/>
	<path class="st50" d="M853.94,399.72l1.98-1.78c0,0,8.72,14.87,16.26,16.85l4.56-6.96l1.98-6.33l4.36,0.4l-1.19,20.42l-7.34-5.35
		l-2.97,7.73C871.59,424.7,851.76,419.35,853.94,399.72z"/>
	<path class="st9" d="M889.5,370.4l-0.85,24.76c0,0-2.78,12.85-10.31,12.67c-7.54-0.18-17.83-10.31-18.84-17.23
		c-1.01-6.92-4.96-7.81-4.96-7.81l3.77-9.25l6.54-4.96c0,0,9.52-1.39,10.11-1.39C875.55,367.2,889.5,370.4,889.5,370.4z"/>
	<path d="M890.23,368.39c0,0-3.94,16.26-21.8,6.15l-2.39,0.4c0,0-3.17,4.96-2.38,7.14c0,0-3.17-12.69-5.75,0l1.78,4.96l-0.2,3.57
		c0,0-7.47-5.95-5.72-18.04c1.75-12.1,5.25-20.02,18.14-20.22C884.8,352.14,891.22,362.24,890.23,368.39z"/>
	<path class="st9" d="M866.04,494.3c0,0,6.57-2.1,8.54-6.07c0,0,7.45-2.1,8.98,3.03c0,0,0.88,2.8-4.82,4.67
		c-5.69,1.87,2.85,13.3,2.85,13.3s-3.29,7.23-17.52,1.17l-4.38-7l2.63-8.87L866.04,494.3z"/>
	<path class="st51" d="M862.33,491.61l3.11,4.36c0,0-4.76,11.42-1.78,15.98l-10.71-4.36l-2.18-13.94l7.34-1.73L862.33,491.61z"/>
	<path class="st38" d="M839.86,408.05c0,0,8.92,3.97,9.72,10.71s-0.4,31.53-8.13,42.83c-0.4,5.35,2.18,11.7,20.23,27.76l1.98,2.97
		c0,0-13.68,6.35-5.95,18.64c0,0,2.58,2.38-0.79,2.78c-3.37,0.4-42.04-19.23-40.65-47.99C817.65,437,832.72,404.87,839.86,408.05z"
		/>
</g>
<path class="st23" d="M1268.06,621.93l-156.15,59.69c0,0-9.01-20.05,19.45-27.02c1.96-0.48,3.66-1.73,4.63-3.51
	c14.11-25.88,30.58-34.2,49.21-42.17c13.33-5.7,24.87,1.98,30.73,7.28c6.96,6.29,18.04,5.24,23.15-2.63c1.43-2.2,2.68-5,3.63-8.56
	c2.02-7.52,9.11-12.79,16.84-11.83C1273.78,594.95,1272.59,615.13,1268.06,621.93z"/>
</svg>
