<?xml version="1.0" encoding="utf-8"?>
<!-- Generator: Adobe Illustrator 23.0.0, SVG Export Plug-In . SVG Version: 6.00 Build 0)  -->
<svg version="1.1" id="Layer_1" xmlns="http://www.w3.org/2000/svg" xmlns:xlink="http://www.w3.org/1999/xlink" x="0px" y="0px"
	 viewBox="0 0 50 50" style="enable-background:new 0 0 50 50;" xml:space="preserve">
<style type="text/css">
	.st0{fill:#DDDDDD;}
	.st1{clip-path:url(#SVGID_2_);}
</style>
<path class="st0" d="M35.1,48.4H15.8c-7.6,0-13.8-6.2-13.8-13.8V15.3c0-7.6,6.2-13.8,13.8-13.8h19.3c7.6,0,13.8,6.2,13.8,13.8v19.3
	C48.9,42.2,42.7,48.4,35.1,48.4z"/>
<g>
	<g>
		<defs>
			<rect id="SVGID_1_" x="14.1" y="7.8" width="22.7" height="34.2"/>
		</defs>
		<clipPath id="SVGID_2_">
			<use xlink:href="#SVGID_1_"  style="overflow:visible;"/>
		</clipPath>
		<path class="st1" d="M36.8,40.3c-0.2-1.4-1.7-1.5-2.6-1.4c-0.9-3.5,2.3-8.8,2.5-10.1c0.2-1.3-1-9.2-1.1-13.1c-0.1-4.1-6-8.5-7-7.8
			c-1,1.1,1.4,2.5,0.2,3.8c-1.2,1.2-1.5,2-2.4,3.4c-2.3,3.5,3.9,3.5,3.9,3.5s-4.9,3.6-6,5.4c-1,1.7-1.4,3.6-2.6,5.1
			c-2.8,3.6-2.1,9.9-2.1,9.9s-5.2-1.7-2.3-7.7c2.2-4.5,3.3-11.2-1.7-9.5c-1.9,0.7,0.4,2.1,0.8,2.5c1.3,1.5,0.2,4-0.6,5.5
			c-2.2,3.9-3,8,1.6,10.5c2,1.1,4.8,1.4,7.5,1.4l7,0C34.2,42,36.8,41.6,36.8,40.3L36.8,40.3z M36.8,40.3"/>
	</g>
</g>
</svg>
