<?xml version="1.0" encoding="utf-8"?>
<!-- Generator: Adobe Illustrator 23.0.0, SVG Export Plug-In . SVG Version: 6.00 Build 0)  -->
<svg version="1.1" id="Layer_1" xmlns="http://www.w3.org/2000/svg" xmlns:xlink="http://www.w3.org/1999/xlink" x="0px" y="0px"
	 viewBox="0 0 252 250" style="enable-background:new 0 0 252 250;" xml:space="preserve">
<style type="text/css">
	.st0{fill:#B3ABD5;}
	.st1{fill:#CC6179;}
	.st2{fill:#59447C;}
	.st3{fill:#EC6478;}
	.st4{fill:#FCCD89;}
	.st5{fill:#EF7F91;}
	.st6{fill:#FFFFFF;}
</style>
<ellipse class="st0" cx="56" cy="836.7" rx="107.6" ry="107.6"/>
<g>
	<path class="st1" d="M122.6,814.3L122.6,814.3c-43.6-11.7-89.5-11.7-133.1,0l0,0v19.9h133.1V814.3z"/>
	<path class="st2" d="M122.6,836.2H-10.5c-1.1,0-2-0.9-2-2v-19.9c0-0.9,0.6-1.7,1.5-1.9c43.9-11.8,90.3-11.8,134.2,0
		c0.9,0.2,1.5,1,1.5,1.9v19.9C124.6,835.3,123.7,836.2,122.6,836.2z M-8.5,832.2h129.1v-16.4c-42.3-11-86.8-11-129.1,0
		C-8.5,815.9-8.5,832.2-8.5,832.2z"/>
	<path class="st3" d="M122.6,845.6c0,6.7-29.8,12.2-66.6,12.2c-36.8,0-66.6-5.4-66.6-12.2v-31.3c0,6.7,29.8,12.2,66.6,12.2
		c36.8,0,66.6-5.4,66.6-12.2V845.6z"/>
	<path class="st2" d="M56,859.8c-17.9,0-34.8-1.3-47.4-3.6c-6.3-1.1-11.2-2.5-14.7-4c-4.3-1.9-6.4-4-6.4-6.6v-31.3h4
		c0,0.9,3.3,4,17.9,6.6c12.5,2.3,29,3.5,46.7,3.5s34.3-1.3,46.7-3.5c14.6-2.7,17.8-5.8,17.8-6.6h4v31.3c0,2.5-2.1,4.7-6.4,6.6
		c-3.5,1.5-8.4,2.8-14.7,4C90.8,858.5,73.9,859.8,56,859.8z M-8.5,819.7v25.9c0,0.9,3.3,4,17.9,6.6c12.5,2.3,29,3.5,46.7,3.5
		s34.3-1.3,46.7-3.5c14.6-2.7,17.8-5.8,17.8-6.6v-25.9c-0.7,0.4-1.5,0.8-2.4,1.2c-3.5,1.5-8.4,2.8-14.7,4
		c-12.7,2.3-29.5,3.6-47.4,3.6s-34.8-1.3-47.4-3.6c-6.3-1.1-11.2-2.5-14.7-4C-7,820.5-7.8,820.1-8.5,819.7z"/>
	<polygon class="st4" points="56,864 71.8,873.2 71.8,891.5 56,900.6 40.2,891.5 40.2,873.2 	"/>
	<path class="st2" d="M56,902.9l-17.8-10.3V872L56,861.7L73.9,872v20.6L56,902.9z M42.2,890.3l13.8,8l13.8-8v-15.9l-13.8-8l-13.8,8
		C42.2,874.3,42.2,890.3,42.2,890.3z"/>
	<path class="st5" d="M120.4,817.4c-7.5,5.2-33.5,9-64.4,9c-6.9,0-13.6-0.2-19.9-0.5c-9-0.5-16.5,6.6-16.5,15.6l0,0
		c0,8.2,6.4,15.1,14.6,15.6c6.8,0.4,14.2,0.7,21.8,0.7c36.8,0,66.6-5.4,66.6-12.2v-28.2L120.4,817.4L120.4,817.4z"/>
	<path class="st2" d="M56,859.8c-7.5,0-14.9-0.2-21.9-0.7c-9.3-0.6-16.5-8.3-16.5-17.6c0-4.9,2-9.5,5.5-12.8
		c3.6-3.4,8.2-5.1,13.1-4.8c6.4,0.4,13,0.5,19.8,0.5c33.3,0,57-4.4,63.2-8.7l0.5-0.4h4.8v30.2c0,2.5-2.1,4.7-6.4,6.6
		c-3.5,1.5-8.4,2.8-14.7,4C90.8,858.5,73.9,859.8,56,859.8z M35.2,827.9c-3.5,0-6.8,1.3-9.3,3.7c-2.8,2.6-4.3,6.1-4.3,9.9
		c0,7.2,5.6,13.1,12.7,13.6c7,0.4,14.2,0.7,21.7,0.7c17.7,0,34.3-1.3,46.7-3.5c14.6-2.7,17.8-5.8,17.8-6.6v-25.9
		c-9.1,5.3-34.6,8.8-64.6,8.8c-6.8,0-13.5-0.2-20-0.6C35.8,827.9,35.5,827.9,35.2,827.9z"/>
	<circle class="st6" cx="38.9" cy="841.8" r="4.5"/>
	<circle class="st6" cx="73.8" cy="841.8" r="4.5"/>
	<circle class="st6" cx="108.7" cy="836.8" r="4.5"/>
	<path class="st2" d="M38.9,848.3c-3.6,0-6.5-2.9-6.5-6.5s2.9-6.5,6.5-6.5s6.5,2.9,6.5,6.5C45.4,845.4,42.5,848.3,38.9,848.3z
		 M38.9,839.3c-1.4,0-2.5,1.1-2.5,2.5s1.1,2.5,2.5,2.5s2.5-1.1,2.5-2.5C41.4,840.4,40.2,839.3,38.9,839.3z"/>
	<path class="st2" d="M73.8,848.3c-3.6,0-6.5-2.9-6.5-6.5s2.9-6.5,6.5-6.5c3.6,0,6.5,2.9,6.5,6.5C80.3,845.4,77.4,848.3,73.8,848.3z
		 M73.8,839.3c-1.4,0-2.5,1.1-2.5,2.5s1.1,2.5,2.5,2.5s2.5-1.1,2.5-2.5C76.3,840.4,75.2,839.3,73.8,839.3z"/>
	<path class="st2" d="M108.7,843.3c-3.6,0-6.5-2.9-6.5-6.5s2.9-6.5,6.5-6.5c3.6,0,6.5,2.9,6.5,6.5
		C115.2,840.3,112.3,843.3,108.7,843.3z M108.7,834.3c-1.4,0-2.5,1.1-2.5,2.5s1.1,2.5,2.5,2.5s2.5-1.1,2.5-2.5
		C111.2,835.4,110.1,834.3,108.7,834.3z"/>
	<rect x="54" y="857.8" class="st2" width="4" height="18.3"/>
</g>
<ellipse class="st0" cx="56" cy="872.7" rx="107.6" ry="107.6"/>
<g>
	<path class="st1" d="M122.6,850.3L122.6,850.3c-43.6-11.7-89.5-11.7-133.1,0l0,0v19.9h133.1V850.3z"/>
	<path class="st2" d="M122.6,872.2H-10.5c-1.1,0-2-0.9-2-2v-19.9c0-0.9,0.6-1.7,1.5-1.9c43.9-11.8,90.3-11.8,134.2,0
		c0.9,0.2,1.5,1,1.5,1.9v19.9C124.6,871.3,123.7,872.2,122.6,872.2z M-8.5,868.2h129.1v-16.4c-42.3-11-86.8-11-129.1,0
		C-8.5,851.9-8.5,868.2-8.5,868.2z"/>
	<path class="st3" d="M122.6,881.6c0,6.7-29.8,12.2-66.6,12.2c-36.8,0-66.6-5.4-66.6-12.2v-31.3c0,6.7,29.8,12.2,66.6,12.2
		c36.8,0,66.6-5.4,66.6-12.2V881.6z"/>
	<path class="st2" d="M56,895.8c-17.9,0-34.8-1.3-47.4-3.6c-6.3-1.1-11.2-2.5-14.7-4c-4.3-1.9-6.4-4-6.4-6.6v-31.3h4
		c0,0.9,3.3,4,17.9,6.6c12.5,2.3,29,3.5,46.7,3.5s34.3-1.3,46.7-3.5c14.6-2.7,17.8-5.8,17.8-6.6h4v31.3c0,2.5-2.1,4.7-6.4,6.6
		c-3.5,1.5-8.4,2.8-14.7,4C90.8,894.5,73.9,895.8,56,895.8z M-8.5,855.7v25.9c0,0.9,3.3,4,17.9,6.6c12.5,2.3,29,3.5,46.7,3.5
		s34.3-1.3,46.7-3.5c14.6-2.7,17.8-5.8,17.8-6.6v-25.9c-0.7,0.4-1.5,0.8-2.4,1.2c-3.5,1.5-8.4,2.8-14.7,4
		c-12.7,2.3-29.5,3.6-47.4,3.6s-34.8-1.3-47.4-3.6c-6.3-1.1-11.2-2.5-14.7-4C-7,856.5-7.8,856.1-8.5,855.7z"/>
	<polygon class="st4" points="56,900 71.8,909.2 71.8,927.5 56,936.6 40.2,927.5 40.2,909.2 	"/>
	<path class="st2" d="M56,938.9l-17.8-10.3V908L56,897.7L73.9,908v20.6L56,938.9z M42.2,926.3l13.8,8l13.8-8v-15.9l-13.8-8l-13.8,8
		C42.2,910.3,42.2,926.3,42.2,926.3z"/>
	<path class="st5" d="M120.4,853.4c-7.5,5.2-33.5,9-64.4,9c-6.9,0-13.6-0.2-19.9-0.5c-9-0.5-16.5,6.6-16.5,15.6l0,0
		c0,8.2,6.4,15.1,14.6,15.6c6.8,0.4,14.2,0.7,21.8,0.7c36.8,0,66.6-5.4,66.6-12.2v-28.2L120.4,853.4L120.4,853.4z"/>
	<path class="st2" d="M56,895.8c-7.5,0-14.9-0.2-21.9-0.7c-9.3-0.6-16.5-8.3-16.5-17.6c0-4.9,2-9.5,5.5-12.8
		c3.6-3.4,8.2-5.1,13.1-4.8c6.4,0.4,13,0.5,19.8,0.5c33.3,0,57-4.4,63.2-8.7l0.5-0.4h4.8v30.2c0,2.5-2.1,4.7-6.4,6.6
		c-3.5,1.5-8.4,2.8-14.7,4C90.8,894.5,73.9,895.8,56,895.8z M35.2,863.9c-3.5,0-6.8,1.3-9.3,3.7c-2.8,2.6-4.3,6.1-4.3,9.9
		c0,7.2,5.6,13.1,12.7,13.6c7,0.4,14.2,0.7,21.7,0.7c17.7,0,34.3-1.3,46.7-3.5c14.6-2.7,17.8-5.8,17.8-6.6v-25.9
		c-9.1,5.3-34.6,8.8-64.6,8.8c-6.8,0-13.5-0.2-20-0.6C35.8,863.9,35.5,863.9,35.2,863.9z"/>
	<circle class="st6" cx="38.9" cy="877.8" r="4.5"/>
	<circle class="st6" cx="73.8" cy="877.8" r="4.5"/>
	<circle class="st6" cx="108.7" cy="872.8" r="4.5"/>
	<path class="st2" d="M38.9,884.3c-3.6,0-6.5-2.9-6.5-6.5s2.9-6.5,6.5-6.5s6.5,2.9,6.5,6.5C45.4,881.4,42.5,884.3,38.9,884.3z
		 M38.9,875.3c-1.4,0-2.5,1.1-2.5,2.5s1.1,2.5,2.5,2.5s2.5-1.1,2.5-2.5C41.4,876.4,40.2,875.3,38.9,875.3z"/>
	<path class="st2" d="M73.8,884.3c-3.6,0-6.5-2.9-6.5-6.5s2.9-6.5,6.5-6.5c3.6,0,6.5,2.9,6.5,6.5C80.3,881.4,77.4,884.3,73.8,884.3z
		 M73.8,875.3c-1.4,0-2.5,1.1-2.5,2.5s1.1,2.5,2.5,2.5s2.5-1.1,2.5-2.5C76.3,876.4,75.2,875.3,73.8,875.3z"/>
	<path class="st2" d="M108.7,879.3c-3.6,0-6.5-2.9-6.5-6.5s2.9-6.5,6.5-6.5c3.6,0,6.5,2.9,6.5,6.5
		C115.2,876.3,112.3,879.3,108.7,879.3z M108.7,870.3c-1.4,0-2.5,1.1-2.5,2.5s1.1,2.5,2.5,2.5s2.5-1.1,2.5-2.5
		C111.2,871.4,110.1,870.3,108.7,870.3z"/>
	<rect x="54" y="893.8" class="st2" width="4" height="18.3"/>
</g>
<ellipse class="st0" cx="128" cy="123.7" rx="107.6" ry="107.6"/>
<g>
	<path class="st1" d="M194.6,101.3L194.6,101.3c-43.6-11.7-89.5-11.7-133.1,0l0,0v19.9h133.1V101.3z"/>
	<path class="st2" d="M194.6,123.2H61.5c-1.1,0-2-0.9-2-2v-19.9c0-0.9,0.6-1.7,1.5-1.9c43.9-11.8,90.3-11.8,134.2,0
		c0.9,0.2,1.5,1,1.5,1.9v19.9C196.6,122.3,195.7,123.2,194.6,123.2z M63.5,119.2h129.1v-16.4c-42.3-11.1-86.8-11.1-129.1,0V119.2z"
		/>
	<path class="st3" d="M194.6,132.6c0,6.7-29.8,12.2-66.6,12.2c-36.8,0-66.6-5.4-66.6-12.2v-31.3c0,6.7,29.8,12.2,66.6,12.2
		c36.8,0,66.6-5.4,66.6-12.2L194.6,132.6L194.6,132.6z"/>
	<path class="st2" d="M128,146.8c-17.9,0-34.8-1.3-47.4-3.6c-6.3-1.1-11.2-2.5-14.7-4c-4.3-1.9-6.4-4-6.4-6.6v-31.3h4
		c0,0.9,3.3,4,17.8,6.6c12.5,2.3,29.1,3.5,46.7,3.5s34.3-1.3,46.7-3.5c14.6-2.7,17.9-5.8,17.9-6.6h4v31.3c0,2.6-2.1,4.7-6.4,6.6
		c-3.5,1.5-8.4,2.9-14.7,4C162.8,145.5,145.9,146.8,128,146.8z M63.5,106.7v25.9c0,0.9,3.3,4,17.8,6.6c12.5,2.3,29,3.5,46.7,3.5
		s34.3-1.3,46.7-3.5c14.6-2.7,17.9-5.8,17.9-6.6v-25.9c-0.7,0.4-1.5,0.8-2.4,1.2c-3.5,1.5-8.4,2.8-14.7,4
		c-12.7,2.3-29.5,3.6-47.4,3.6s-34.8-1.3-47.4-3.6c-6.3-1.1-11.2-2.5-14.7-4C65,107.5,64.2,107.1,63.5,106.7z"/>
	<polygon class="st4" points="128,151.1 143.9,160.2 143.9,178.4 128,187.6 112.2,178.4 112.2,160.2 	"/>
	<path class="st2" d="M128,189.9l-17.8-10.3V159l17.8-10.3l17.8,10.3v20.6L128,189.9z M114.2,177.3l13.8,8l13.8-8v-15.9l-13.8-8
		l-13.8,8C114.2,161.3,114.2,177.3,114.2,177.3z"/>
	<path class="st5" d="M192.4,104.4c-7.5,5.2-33.5,9-64.4,9c-6.9,0-13.6-0.2-19.9-0.6c-9-0.5-16.5,6.6-16.5,15.6l0,0
		c0,8.2,6.4,15.1,14.6,15.6c6.8,0.4,14.2,0.7,21.8,0.7c36.8,0,66.6-5.4,66.6-12.2v-28.2L192.4,104.4L192.4,104.4z"/>
	<path class="st2" d="M128,146.8c-7.5,0-14.9-0.2-21.9-0.7c-9.3-0.6-16.5-8.3-16.5-17.6c0-4.9,2-9.4,5.5-12.8
		c3.6-3.4,8.2-5.1,13.1-4.8c6.4,0.4,13,0.6,19.8,0.6c33.3,0,57-4.4,63.2-8.7l0.5-0.4h4.8v30.2c0,2.6-2.1,4.7-6.4,6.6
		c-3.5,1.5-8.4,2.9-14.7,4C162.8,145.5,145.9,146.8,128,146.8z M107.2,114.9c-3.5,0-6.8,1.3-9.3,3.7c-2.8,2.6-4.3,6.1-4.3,9.9
		c0,7.2,5.6,13.1,12.7,13.6c6.9,0.4,14.2,0.7,21.7,0.7c17.7,0,34.3-1.3,46.7-3.5c14.6-2.7,17.9-5.8,17.9-6.6v-25.9
		c-9.1,5.3-34.6,8.8-64.6,8.8c-6.8,0-13.6-0.2-20-0.6C107.8,114.9,107.5,114.9,107.2,114.9z"/>
	<circle class="st6" cx="110.9" cy="128.8" r="4.5"/>
	<circle class="st6" cx="145.8" cy="128.8" r="4.5"/>
	<circle class="st6" cx="180.7" cy="123.8" r="4.5"/>
	<path class="st2" d="M110.9,135.3c-3.6,0-6.5-2.9-6.5-6.5s2.9-6.5,6.5-6.5c3.6,0,6.5,2.9,6.5,6.5
		C117.4,132.4,114.5,135.3,110.9,135.3z M110.9,126.3c-1.4,0-2.5,1.1-2.5,2.5c0,1.4,1.1,2.5,2.5,2.5s2.5-1.1,2.5-2.5
		C113.4,127.4,112.2,126.3,110.9,126.3z"/>
	<path class="st2" d="M145.8,135.3c-3.6,0-6.5-2.9-6.5-6.5s2.9-6.5,6.5-6.5s6.5,2.9,6.5,6.5C152.3,132.4,149.4,135.3,145.8,135.3z
		 M145.8,126.3c-1.4,0-2.5,1.1-2.5,2.5c0,1.4,1.1,2.5,2.5,2.5s2.5-1.1,2.5-2.5C148.3,127.4,147.2,126.3,145.8,126.3z"/>
	<path class="st2" d="M180.7,130.3c-3.6,0-6.5-2.9-6.5-6.5c0-3.6,2.9-6.5,6.5-6.5s6.5,2.9,6.5,6.5
		C187.2,127.3,184.3,130.3,180.7,130.3z M180.7,121.3c-1.4,0-2.5,1.1-2.5,2.5s1.1,2.5,2.5,2.5s2.5-1.1,2.5-2.5
		C183.2,122.4,182.1,121.3,180.7,121.3z"/>
	<rect x="126" y="144.8" class="st2" width="4" height="18.4"/>
</g>
</svg>
