<?xml version="1.0" encoding="utf-8"?>
<!-- Generator: Adobe Illustrator 23.0.0, SVG Export Plug-In . SVG Version: 6.00 Build 0)  -->
<svg version="1.1" id="Layer_1" xmlns="http://www.w3.org/2000/svg" xmlns:xlink="http://www.w3.org/1999/xlink" x="0px" y="0px"
	 viewBox="0 0 50 50" style="enable-background:new 0 0 50 50;" xml:space="preserve">
<style type="text/css">
	.st0{fill:#DDDDDD;}
</style>
<path class="st0" d="M34.6,48.4H15.3c-7.6,0-13.8-6.2-13.8-13.8V15.3c0-7.6,6.2-13.8,13.8-13.8h19.3c7.6,0,13.8,6.2,13.8,13.8v19.3
	C48.4,42.2,42.2,48.4,34.6,48.4z"/>
<path d="M41.8,13.6h-1.3c-1.1,0-2.1-0.4-2.8-1.2L36,10.8c-0.7-0.7-1.8-1.2-2.8-1.2h-6.3c-0.6,0.1-1.2,0.2-1.9,0.7l0,0
	c-0.5,0.3-3.3,3.2-3.7,3.6c-1.9,1.9-1.3,7.1,2.4,7.6c0.1,0,0.3,0,0.4,0L23.6,23c-2.5,1.4-6.7,3.9-8.3,5c-0.1,0.1-0.3,0.2-0.4,0.3
	c-1.9,1.4-3.1,3.8-2.6,6.5c0.1,0.5,0.3,1,0.5,1.5l0,0H8.8c-1.1,0-2,0.9-2,2s0.9,2,2,2h16.6c0.6,0,1.1-0.4,1.3-0.9
	c0.4-1.3-1.6-2.9-3.3-3c0.3-0.4,0.4-0.9,0.6-1.4l1.3,0c1.1,0,2.4,0,2.8,0v4c0,0.7,0.6,1.3,1.3,1.3h2.7h2.3c1,0,1.7-1.1,1.2-2
	c-0.6-1-1.7-1.8-3-1.9l0.3-2.4c1.6-1,2.8-2.6,3.1-4.5c0.5-2.6-0.7-5-2.6-6.5v-2.7h4c1.5,0,3.3-1,4-2.3l1.4-2.4
	C43.4,14.8,42.8,13.6,41.8,13.6z M34.8,14.6c-0.6,0-1-0.4-1-1c0-0.6,0.4-1,1-1c0.6,0,1,0.4,1,1C35.8,14.2,35.3,14.6,34.8,14.6z"/>
</svg>
