<?xml version="1.0" encoding="utf-8"?>
<!-- Generator: Adobe Illustrator 23.0.0, SVG Export Plug-In . SVG Version: 6.00 Build 0)  -->
<svg version="1.1" id="Layer_1" xmlns="http://www.w3.org/2000/svg" xmlns:xlink="http://www.w3.org/1999/xlink" x="0px" y="0px"
	 viewBox="0 0 252 250" style="enable-background:new 0 0 252 250;" xml:space="preserve">
<style type="text/css">
	.st0{fill:#B3ABD5;}
	.st1{fill:#EF7F91;}
	.st2{fill:#59447C;}
	.st3{fill:#7FCEF3;}
	.st4{fill:#CC6179;}
</style>
<ellipse transform="matrix(0.7071 -0.7071 0.7071 0.7071 -49.7305 126.6575)" class="st0" cx="128.02" cy="123.36" rx="107.57" ry="107.57"/>
<g>
	<polygon class="st1" points="173.46,174.25 82.59,174.25 82.59,128.68 128.02,86.58 173.46,128.68 	"/>
	<path class="st2" d="M175.47,176.26H80.58V127.8l47.44-43.96l47.44,43.96V176.26z M84.6,172.24h86.85v-42.68l-43.43-40.24
		L84.6,129.55V172.24z"/>
	<polygon class="st3" points="128.02,73.2 68.72,128.15 68.72,132.45 82.59,132.45 82.59,128.68 128.02,86.58 173.46,128.68 
		173.46,132.45 187.32,132.45 187.32,128.15 	"/>
	<path class="st2" d="M189.33,134.46h-17.88v-4.91l-43.43-40.24L84.6,129.55v4.91H66.71v-7.19l61.31-56.81l61.31,56.81V134.46z
		 M175.47,130.44h9.85v-1.42l-57.29-53.09l-57.29,53.09v1.42h9.85v-2.64l47.44-43.96l47.44,43.96V130.44z"/>
	<path class="st4" d="M128.02,123.69L128.02,123.69c-14.46,0-26.18,11.72-26.18,26.18v24.38h52.36v-24.38
		C154.2,135.41,142.48,123.69,128.02,123.69z"/>
	<path class="st2" d="M156.21,176.26H99.83v-26.39c0-15.54,12.65-28.19,28.19-28.19c15.54,0,28.19,12.65,28.19,28.19V176.26z
		 M103.85,172.24h48.34v-22.37c0-13.33-10.84-24.17-24.17-24.17s-24.17,10.84-24.17,24.17V172.24z"/>
</g>
</svg>
