<?xml version="1.0" encoding="utf-8"?>
<!-- Generator: Adobe Illustrator 23.0.0, SVG Export Plug-In . SVG Version: 6.00 Build 0)  -->
<svg version="1.1" id="Layer_1" xmlns="http://www.w3.org/2000/svg" xmlns:xlink="http://www.w3.org/1999/xlink" x="0px" y="0px"
	 viewBox="0 0 600 490" style="enable-background:new 0 0 600 490;" xml:space="preserve">
<style type="text/css">
	.st0{fill:#808174;}
	.st1{opacity:0.1;fill:#1D1D1B;}
	.st2{fill:#B4ACEA;}
	.st3{fill:#635F9E;}
	.st4{fill:url(#SVGID_1_);}
	.st5{fill:#FFFFFF;}
	.st6{fill:#EF8159;}
	.st7{fill:#7A4A4B;}
	.st8{fill:#8D8E8D;}
</style>
<polygon class="st0" points="288.32,148.58 293.44,156.26 290.88,156.26 288.32,156.26 288.32,151.14 "/>
<path class="st1" d="M202.21,465.3L35.1,368.82c-10.77-6.22-9.42-17.08,3.02-24.27l319.02-184.18c12.44-7.18,31.26-7.96,42.03-1.74
	l167.11,96.48c10.77,6.22,9.42,17.08-3.02,24.27L244.24,463.56C231.8,470.74,212.98,471.52,202.21,465.3z"/>
<path class="st2" d="M206.31,430.85L39.19,334.37c-10.77-6.22-19.67-49.67-7.23-56.86l329.27-151.59
	c12.44-7.18,31.26-7.96,42.03-1.74l162.78,57.22c10.77,6.22,13.75,56.35,1.31,63.53L248.34,429.11
	C235.9,436.29,217.08,437.07,206.31,430.85z"/>
<path class="st3" d="M201.97,391.58L34.86,295.1c-10.77-6.22-9.42-17.08,3.02-24.27L356.89,86.65c12.44-7.18,31.26-7.96,42.03-1.74
	l167.11,96.48c10.77,6.22,9.42,17.08-3.02,24.27L244,389.84C231.56,397.02,212.74,397.8,201.97,391.58z"/>
<linearGradient id="SVGID_1_" gradientUnits="userSpaceOnUse" x1="85.4688" y1="235.7907" x2="523.9233" y2="235.7907">
	<stop  offset="0.1205" style="stop-color:#7F8FC7"/>
	<stop  offset="0.3501" style="stop-color:#A1A4C1"/>
	<stop  offset="0.6226" style="stop-color:#C2B9BA"/>
	<stop  offset="0.8491" style="stop-color:#D7C6B6"/>
	<stop  offset="1" style="stop-color:#DECBB5"/>
</linearGradient>
<path class="st4" d="M249.57,360.65L88.44,267.62c-4.39-2.54-3.84-6.97,1.23-9.9l253.01-146.08c5.07-2.93,12.75-3.25,17.14-0.71
	l161.13,93.03c4.39,2.54,3.84,6.97-1.23,9.9L266.71,359.94C261.64,362.87,253.96,363.19,249.57,360.65z"/>
<path class="st5" d="M141.4,344.16l-25.04-14.45c-1.38-0.79-1.2-2.2,0.39-3.11l24.07-13.9c1.59-0.92,4.02-1.02,5.39-0.22
	l25.04,14.45c1.38,0.79,1.2,2.2-0.39,3.11l-24.07,13.9C145.2,344.86,142.78,344.96,141.4,344.16z"/>
<path class="st5" d="M494.04,174.29l-83.45-48.18c-1.38-0.79-1.2-2.2,0.39-3.11l3.76-2.17c1.59-0.92,4.02-1.02,5.39-0.22
	l83.45,48.18c1.38,0.79,1.2,2.2-0.39,3.11l-3.76,2.17C497.84,174.99,495.41,175.09,494.04,174.29z"/>
<path class="st6" d="M177.59,85.21c0,0-4.28-7.49,11.61-17.58c3.23-2.05,5.69-5.09,7.18-8.61c8.56-20.25,21.53-25.65,21.53-25.65
	s26.88-7.68,25.6,11.52c12.8,14.08,17.92,40.96,17.92,44.8c3.21,3.21,16.23,21.58,20.44,29.8c1.29,2.52,3.14,4.71,5.44,6.35
	c9.88,7.04,34.02,25.35,33,35.54c0,0,1.28,5.12-1.28,8.96c5.12,0,15.36,11.52,12.8,16.64c-2.56,5.12-7.68,6.4-7.68,6.4l-39.68,12.8
	l-19.2,11.52c0,0-14.08,8.96-8.96-10.24c0,0,3.84-6.4,16.64-8.96c0,0-19.2-6.4-21.76-10.24c0,7.68,1.28,34.56-19.2,37.12
	s-6.4-21.76,2.56-19.2c0,0,3.84-6.4,1.28-17.92c-3.84-8.96-5.12-2.56-5.12-2.56s0,16.64-2.56,17.92c-2.56,1.28-12.8,12.8-17.92,8.96
	c-5.12-3.84-7.68-10.24,3.84-15.36c0,0,5.12-5.12,3.84-24.32c-5.7-18.24-11.4-54.76-0.82-66.15c3.05-3.28,4.84-7.55,4.52-12.02
	c-0.67-9.53-4.18-17.91-21.62-10.16C176.95,94.81,177.59,85.21,177.59,85.21z"/>
<path class="st7" d="M279.36,151.14c0,0-28.16,16.64,0,43.52C279.36,194.66,221.76,165.22,279.36,151.14z"/>
<path class="st8" d="M285.76,156.26l-3.84-17.92c0,0,12.8,10.24,15.36,15.36c0,0,3.84,1.28,5.12,2.56c1.28,1.28,0-5.12,0-5.12
	s20.48,5.12,11.52,26.88c0,0,5.12,19.2,10.24,21.76s25.6,5.12,26.88,35.84c24.32,0,15.36,30.72,15.36,30.72
	s-16.64,34.56-43.52,21.76c-6.4-24.32,19.2-19.2,19.2-19.2s32-11.52,6.4-21.76L328,263.79c0,0-17.92,7.68-11.52-7.68
	c8.96-6.4,8.96-3.84,8.96-3.84s-2.56-2.56-14.08-5.12l-2.56,8.96c0,0-11.52,8.96-16.64,3.84c-5.12-5.12,2.56-11.52,6.4-10.24
	l2.56-10.24h-6.4c0,0-6.4,10.24-19.2,11.52c0,0-6.4-5.12,8.96-19.2c-1.28-6.4,0-11.52,0-11.52s-5.12-17.92,2.56-25.6
	c0-3.84,0-3.84,0-3.84S262.72,179.3,285.76,156.26z"/>
<g>
	<path class="st0" d="M326.72,222.82c-1.2,2.09-2.18,4.07-2.85,6.07c-0.66,2-1.03,3.98-0.94,5.96c-0.04,0.5,0.09,0.99,0.12,1.49
		c0.02,0.25,0.03,0.5,0.07,0.75c0.06,0.25,0.13,0.49,0.17,0.74c0.12,0.5,0.17,1.01,0.34,1.51c0.17,0.49,0.33,0.99,0.49,1.51
		c0.12,0.53,0.37,1.01,0.58,1.52c0.21,0.51,0.41,1.03,0.61,1.56c0.47,1.03,1,2.04,1.41,3.21c-1.03-0.61-1.98-1.36-2.91-2.15
		c-0.41-0.44-0.82-0.89-1.22-1.36c-0.4-0.47-0.82-0.93-1.11-1.48c-0.32-0.53-0.63-1.08-0.93-1.63c-0.31-0.55-0.46-1.18-0.69-1.78
		c-0.11-0.3-0.2-0.61-0.3-0.91c-0.07-0.31-0.11-0.64-0.17-0.95c-0.07-0.64-0.23-1.28-0.21-1.94c-0.11-2.62,0.7-5.23,2.05-7.35
		C322.6,225.49,324.48,223.76,326.72,222.82z"/>
</g>
<path class="st0" d="M306.24,158.82c0,0,7.68,5.12,2.56,16.64C308.8,175.46,304.96,165.22,306.24,158.82z"/>
<path class="st7" d="M239.68,44.89c0,0-16.64,8.96,8.96,55.04c0,0,8.06,7.9,12.35-13.97C260.99,85.96,252.48,43.61,239.68,44.89z"/>
<path d="M179.78,75.76c0,0,8.54,6.52-2.29,9.22C177.49,84.99,175.75,79.17,179.78,75.76z"/>
</svg>
