<?xml version="1.0" encoding="utf-8"?>
<!-- Generator: Adobe Illustrator 23.0.0, SVG Export Plug-In . SVG Version: 6.00 Build 0)  -->
<svg version="1.1" id="Layer_1" xmlns="http://www.w3.org/2000/svg" xmlns:xlink="http://www.w3.org/1999/xlink" x="0px" y="0px"
	 viewBox="0 0 252 250" style="enable-background:new 0 0 252 250;" xml:space="preserve">
<style type="text/css">
	.st0{fill:#B3ABD5;}
	.st1{fill:#FFEDD4;}
	.st2{fill:#FCCD89;}
	.st3{fill:#59447C;}
	.st4{fill:#CCDDE6;}
</style>
<ellipse transform="matrix(0.7071 -0.7071 0.7071 0.7071 -50.5338 127.2946)" class="st0" cx="128.39" cy="124.65" rx="107.57" ry="107.57"/>
<g>
	<path class="st1" d="M111.35,83.12c0,0-32.97-37.41-45.4-3.9S65.52,116.7,80.09,95.9s24.54-8.93,24.54-8.93L111.35,83.12z"/>
	<path class="st1" d="M145.43,83.12c0,0,32.97-37.41,45.4-3.9s0.43,37.47-14.14,16.68c-14.57-20.8-24.54-8.93-24.54-8.93
		L145.43,83.12z"/>
	<path class="st2" d="M162.5,132.69v-25.03c0-10.62-6.74-20.08-16.79-23.53l0,0c-11.14-3.83-23.23-3.83-34.37,0l0,0
		c-10.05,3.46-16.79,12.91-16.79,23.53v25.03c0,7.34-1.72,14.54-4.69,21.24c-0.87,1.96-1.33,4.02-1.33,6.15
		c0,13.21,17.91,23.93,40,23.93c22.09,0,40-10.71,40-23.93c0-2.13-0.46-4.19-1.33-6.15C164.22,147.23,162.5,140.03,162.5,132.69z"/>
	<path class="st3" d="M128.53,186.02c-11.04,0-21.45-2.59-29.32-7.29c-8.19-4.9-12.69-11.52-12.69-18.64c0-2.37,0.51-4.71,1.51-6.96
		c3-6.76,4.52-13.64,4.52-20.43v-25.03c0-11.48,7.29-21.7,18.14-25.43c11.5-3.96,24.17-3.96,35.68,0
		c10.85,3.73,18.14,13.95,18.14,25.43v25.03c0,6.79,1.52,13.67,4.52,20.43c1,2.25,1.51,4.6,1.51,6.96c0,7.13-4.51,13.75-12.69,18.64
		C149.99,183.43,139.57,186.02,128.53,186.02z M128.53,83.28c-5.6,0-11.2,0.92-16.53,2.75c-9.23,3.18-15.43,11.87-15.43,21.63v25.03
		c0,7.36-1.64,14.78-4.87,22.06c-0.77,1.74-1.16,3.53-1.16,5.33c0,5.66,3.81,11.05,10.74,15.19c7.25,4.34,16.93,6.72,27.25,6.72
		s20.01-2.39,27.25-6.72c6.92-4.14,10.74-9.54,10.74-15.19c0-1.8-0.39-3.6-1.16-5.33c-3.23-7.28-4.87-14.7-4.87-22.06v-25.03
		c0-9.76-6.2-18.46-15.43-21.63C139.73,84.2,134.13,83.28,128.53,83.28z"/>
	<path class="st3" d="M65.15,110.69c-0.95,0-1.84-0.21-2.66-0.64c-5.46-2.86-4.9-14.06,1.58-31.52c3.24-8.74,8.17-13.78,14.66-14.98
		c15.33-2.85,33.37,17.38,34.13,18.25c0.4,0.45,0.57,1.06,0.48,1.66c-0.1,0.6-0.46,1.11-0.98,1.42l-6.72,3.85
		c-0.84,0.48-1.91,0.29-2.54-0.45c-0.09-0.11-2.52-2.85-6.58-2.64c-4.59,0.24-9.7,4.19-14.77,11.43
		C75.53,105.92,69.66,110.69,65.15,110.69z M81.84,67.28c-0.81,0-1.6,0.07-2.38,0.21c-5,0.93-8.91,5.11-11.62,12.43
		c-6.47,17.44-5.62,25.44-3.48,26.57c1.66,0.87,6.95-1.55,14.09-11.74c5.93-8.46,11.96-12.88,17.95-13.14
		c4.04-0.17,6.98,1.62,8.52,2.89l3.22-1.85C103.81,78.24,92.03,67.28,81.84,67.28z"/>
	<path class="st3" d="M191.63,110.69c-4.51,0-10.38-4.77-16.58-13.64c-5.07-7.24-10.18-11.2-14.77-11.43
		c-4.06-0.21-6.49,2.54-6.59,2.65c-0.63,0.73-1.69,0.92-2.53,0.44l-6.72-3.85c-0.52-0.3-0.88-0.82-0.98-1.42
		c-0.1-0.6,0.08-1.2,0.48-1.66c0.76-0.86,18.8-21.09,34.13-18.25c6.49,1.21,11.42,6.25,14.66,14.98
		c6.48,17.47,7.04,28.66,1.58,31.52C193.47,110.48,192.58,110.69,191.63,110.69z M159.84,81.59c0.18,0,0.37,0,0.55,0.01
		c5.98,0.26,12.02,4.69,17.95,13.14c7.14,10.19,12.43,12.61,14.09,11.74c2.14-1.12,2.99-9.13-3.48-26.57
		c-2.71-7.32-6.62-11.5-11.62-12.43c-10.67-1.99-24.01,10.39-28.68,15.15l3.22,1.85C153.34,83.28,156.08,81.59,159.84,81.59z"/>
	<g>
		<path class="st3" d="M115.35,121.14c0,2.32-1.88,4.2-4.2,4.2c-2.32,0-4.2-1.88-4.2-4.2c0-2.32,1.88-4.2,4.2-4.2
			C113.47,116.94,115.35,118.82,115.35,121.14z"/>
		<path class="st3" d="M150.11,121.14c0,2.32-1.88,4.2-4.2,4.2c-2.32,0-4.2-1.88-4.2-4.2c0-2.32,1.88-4.2,4.2-4.2
			C148.23,116.94,150.11,118.82,150.11,121.14z"/>
	</g>
	<path class="st1" d="M128.53,135.57c-17.64,0-32.84,17.08-39.72,27.33c2.32,11.89,19.22,21.12,39.72,21.12
		c20.5,0,37.4-9.23,39.72-21.12C161.37,152.65,146.18,135.57,128.53,135.57z"/>
	<path class="st3" d="M128.53,186.02c-10.19,0-20-2.25-27.63-6.34c-7.82-4.19-12.82-10.02-14.07-16.4c-0.1-0.52,0.01-1.06,0.3-1.51
		c2.65-3.94,8.28-11.52,16.23-17.95c8.43-6.81,16.89-10.27,25.16-10.27c8.27,0,16.73,3.45,25.16,10.27
		c7.95,6.43,13.58,14,16.23,17.95c0.3,0.44,0.41,0.98,0.3,1.51c-1.25,6.39-6.24,12.21-14.07,16.4
		C148.53,183.77,138.72,186.02,128.53,186.02z M90.96,163.3c1.27,4.88,5.45,9.41,11.84,12.84c7.05,3.78,16.19,5.86,25.73,5.86
		s18.68-2.08,25.73-5.86c6.4-3.43,10.57-7.96,11.84-12.84c-8.64-12.57-22.89-25.72-37.57-25.72
		C113.85,137.58,99.6,150.73,90.96,163.3z"/>
	<path class="st3" d="M128.53,161.44c-1.11,0-2.01-0.9-2.01-2.01v-7.55c0-1.11,0.9-2.01,2.01-2.01c1.11,0,2.01,0.9,2.01,2.01v7.55
		C130.54,160.55,129.64,161.44,128.53,161.44z"/>
	<path class="st4" d="M125.83,150.71l-4.39-4.67c-1.04-1.11-0.25-2.92,1.26-2.92h11.65c1.52,0,2.3,1.81,1.26,2.92l-4.39,4.67
		C129.77,152.27,127.29,152.27,125.83,150.71z"/>
	<path class="st3" d="M128.53,153.89c-1.57,0-3.09-0.66-4.17-1.8l0,0l-4.39-4.67c-1.02-1.09-1.3-2.68-0.71-4.05
		c0.59-1.37,1.94-2.26,3.44-2.26h11.65c1.49,0,2.84,0.89,3.44,2.26c0.59,1.37,0.32,2.96-0.71,4.05l-4.39,4.67
		C131.62,153.23,130.1,153.89,128.53,153.89z M127.29,149.34c0.32,0.35,0.76,0.54,1.24,0.54s0.91-0.19,1.24-0.54l3.95-4.21h-10.38
		L127.29,149.34z"/>
	<path class="st3" d="M128.53,169.67c-1.77,0-3.54-0.21-5.26-0.64l-2.54-0.63c-1.08-0.27-1.73-1.36-1.46-2.44
		c0.27-1.08,1.36-1.73,2.44-1.46l2.54,0.63c2.8,0.7,5.76,0.7,8.57,0l2.54-0.63c1.08-0.27,2.17,0.39,2.44,1.46
		c0.27,1.08-0.39,2.17-1.46,2.44l-2.54,0.63C132.07,169.45,130.3,169.67,128.53,169.67z"/>
</g>
</svg>
