<?xml version="1.0" encoding="utf-8"?>
<!-- Generator: Adobe Illustrator 23.0.0, SVG Export Plug-In . SVG Version: 6.00 Build 0)  -->
<svg version="1.1" id="Layer_1" xmlns="http://www.w3.org/2000/svg" xmlns:xlink="http://www.w3.org/1999/xlink" x="0px" y="0px"
	 viewBox="0 0 200 200" style="enable-background:new 0 0 200 200;" xml:space="preserve">
<style type="text/css">
	.st0{fill:#B1ADF2;}
	.st1{fill:#FFFFFF;}
</style>
<circle class="st0" cx="100.5" cy="100" r="88.2"/>
<path class="st1" d="M129.9,115.5 M129.9,115.5c-3.2-3.2-7.2-3.2-10.4,0c-2.4,2.4-4.9,4.8-7.3,7.3c-0.7,0.7-1.2,0.8-2,0.4
	c-1.6-0.9-3.3-1.6-4.8-2.5c-7.1-4.4-13-10.2-18.3-16.6c-2.6-3.2-4.9-6.6-6.6-10.5c-0.3-0.8-0.3-1.3,0.4-1.9c2.4-2.4,4.8-4.8,7.2-7.2
	c3.3-3.4,3.3-7.3,0-10.7c-1.9-1.9-3.8-3.8-5.7-5.7c-2-2-3.9-4-5.9-5.9c-3.2-3.1-7.2-3.1-10.4,0c-2.5,2.4-4.8,4.9-7.3,7.3
	c-2.3,2.2-3.5,4.9-3.7,8c-0.4,5.1,0.9,9.9,2.6,14.6c3.6,9.7,9.1,18.3,15.8,26.2c9,10.7,19.8,19.1,32.4,25.3
	c5.7,2.7,11.5,4.9,17.9,5.2c4.4,0.2,8.2-0.9,11.3-4.3c2.1-2.3,4.5-4.5,6.7-6.7c3.3-3.3,3.3-7.3,0-10.6
	C137.7,123.2,133.8,119.3,129.9,115.5L129.9,115.5z"/>
<path class="st1" d="M122.1,99.5l7.6-1.3c-1.2-6.9-4.5-13.2-9.5-18.2c-5.3-5.3-11.9-8.6-19.3-9.6L99.9,78c5.7,0.8,10.9,3.4,14.9,7.4
	C118.7,89.2,121.2,94.1,122.1,99.5L122.1,99.5z M122.1,99.5"/>
<path class="st1" d="M134,66.6c-8.7-8.7-19.8-14.2-32-15.9l-1.1,7.6c10.6,1.5,20.1,6.2,27.7,13.8c7.2,7.1,11.9,16.2,13.6,26.1
	l7.6-1.3C147.7,85.4,142.3,74.9,134,66.6L134,66.6z M134,66.6"/>
</svg>
