<?xml version="1.0" encoding="utf-8"?>
<!-- Generator: Adobe Illustrator 23.0.0, SVG Export Plug-In . SVG Version: 6.00 Build 0)  -->
<svg version="1.1" id="Layer_1" xmlns="http://www.w3.org/2000/svg" xmlns:xlink="http://www.w3.org/1999/xlink" x="0px" y="0px"
	 viewBox="0 0 1366 472" style="enable-background:new 0 0 1366 472;" xml:space="preserve">
<style type="text/css">
	.st0{opacity:0.58;fill:url(#SVGID_1_);}
</style>
<linearGradient id="SVGID_1_" gradientUnits="userSpaceOnUse" x1="0" y1="236.0737" x2="1378.2312" y2="236.0737">
	<stop  offset="0.1205" style="stop-color:#7F8FC7"/>
	<stop  offset="0.3501" style="stop-color:#A1A4C1"/>
	<stop  offset="0.6226" style="stop-color:#C2B9BA"/>
	<stop  offset="0.8491" style="stop-color:#D7C6B6"/>
	<stop  offset="1" style="stop-color:#DECBB5"/>
</linearGradient>
<path class="st0" d="M0,0.07c0,0,26.14,79.08,132.9,129.27c47.31,22.24,101.91,22.36,149.6,0.95
	c39.45-17.71,99.62-36.36,175.39-34.21c88.13,2.5,153.99,26.89,190.98,44.82c15.12,7.33,29.41,16.27,42.82,26.4
	c28.7,21.67,123.12,79.44,223.09-7.22c119.97-104,429.9-40,450.89,46c20.99,86,9.33,168,9.33,168s-239.18-209.57-437.67-78.46
	c-5.52,3.64-11.33,6.84-17.33,9.61c-176.37,81.57-297.3,0.65-347.32-45.66c-34.95-32.36-78.37-54.33-125.38-61.91
	c-61.34-9.89-142.34-3-217.35,66.42C82.98,400.07,0,472.07,0,472.07V0.07z"/>
</svg>
