<?xml version="1.0" encoding="utf-8"?>
<!-- Generator: Adobe Illustrator 23.0.0, SVG Export Plug-In . SVG Version: 6.00 Build 0)  -->
<svg version="1.1" id="Layer_1" xmlns="http://www.w3.org/2000/svg" xmlns:xlink="http://www.w3.org/1999/xlink" x="0px" y="0px"
	 viewBox="0 0 1366 813" style="enable-background:new 0 0 1366 813;" xml:space="preserve">
<style type="text/css">
	.st0{opacity:0.58;fill:url(#SVGID_1_);}
</style>
<linearGradient id="SVGID_1_" gradientUnits="userSpaceOnUse" x1="-4.025" y1="537.8237" x2="1371.8022" y2="537.8237">
	<stop  offset="0" style="stop-color:#DECBB5"/>
	<stop  offset="0.1509" style="stop-color:#D7C6B6"/>
	<stop  offset="0.3774" style="stop-color:#C2B9BA"/>
	<stop  offset="0.6499" style="stop-color:#A1A4C1"/>
	<stop  offset="0.8795" style="stop-color:#7F8FC7"/>
</linearGradient>
<path class="st0" d="M2.47-2.93c0,0-8.34,88.67,109.03,193.69c102.84,92.01,238.22,138.55,376.04,132.1
	c371.83-17.38,836.86-211.78,883.93-256.29v395.5c0,0,0.74,3.4,0,10c-22.4,200.68-227.02,334.41-421.75,281.23
	c-76.55-20.9-140.48-41.44-189.11-58.32c-136.47-47.37-287.43-31.66-409.97,44.86c-34.64,21.63-68.11,48.75-97.76,82.73
	c-150.95,173-256.91,256-256.91,256L2.47-2.93z"/>
</svg>
