<?xml version="1.0" encoding="utf-8"?>
<!-- Generator: Adobe Illustrator 23.0.0, SVG Export Plug-In . SVG Version: 6.00 Build 0)  -->
<svg version="1.1" id="Layer_1" xmlns="http://www.w3.org/2000/svg" xmlns:xlink="http://www.w3.org/1999/xlink" x="0px" y="0px"
	 viewBox="0 0 300 300" style="enable-background:new 0 0 300 300;" xml:space="preserve">
<style type="text/css">
	.st0{fill:#352A7E;}
	.st1{fill:#877FBA;}
</style>
<g>
	<path class="st0" d="M21.61,230.27c-0.36,0-0.71-0.07-1.05-0.19c-0.34-0.13-0.51-0.32-0.51-0.56c0-0.39,0.36-2.89,1.07-7.51
		c0.71-4.62,1.16-12.95,1.34-25c0-0.52-0.12-1.06-0.37-1.61c-0.08-0.19-0.12-0.37-0.12-0.54c0-0.44,0.21-0.81,0.63-1.12
		c0.54-0.39,1.2-0.58,2-0.58c0.86,0,1.48,0.38,1.85,1.15l7.36,14.92l5.59-12.44c0.27-0.63,0.41-1.33,0.41-2.1
		c0-0.58,0.24-1.09,0.73-1.5c0.49-0.41,1.13-0.62,1.93-0.62c0.7,0,1.31,0.18,1.83,0.55c0.52,0.37,0.8,0.84,0.83,1.43
		c1.22,22.26,1.83,33.66,1.83,34.21c0,0.5-0.33,0.85-1,1.03c-0.67,0.18-1.26,0.27-1.78,0.27c-1.51,0-2.29-0.4-2.34-1.2l-1.68-28.02
		l-5.02,11.46c-0.44,1.02-1.19,1.54-2.24,1.54c-1.12,0-1.94-0.5-2.46-1.49l-5.7-11.12c-0.03,4.94-0.17,9.6-0.41,13.99
		c-0.24,4.38-0.81,9.22-1.71,14.52C22.55,230.1,22.21,230.27,21.61,230.27z"/>
	<path class="st0" d="M69.53,230.81c-1.02,0-1.67-0.48-1.95-1.44l-2.05-7.34c-1.61-0.16-3.11-0.24-4.49-0.24
		c-2.11,0-4.45,0.19-7,0.58l-2.02,6.46c-0.13,0.42-0.58,0.63-1.37,0.63c-0.78,0-1.17-0.27-1.17-0.81c0-0.52,0.55-2.45,1.66-5.8
		c-0.6,0.08-0.98,0.12-1.15,0.12c-0.28,0-0.5-0.12-0.66-0.37c-0.16-0.24-0.24-0.51-0.24-0.8c0-0.42,0.16-0.67,0.49-0.73
		c0.78-0.16,1.53-0.31,2.27-0.44c1.72-5.48,3.05-10.17,3.97-14.07c1.32-5.67,1.97-8.93,1.97-9.78c0-0.39-0.07-1.06-0.22-2
		c0-0.5,0.33-0.91,1-1.22c0.6-0.28,1.24-0.41,1.92-0.41c1.25,0,1.99,0.37,2.22,1.12c6.81,22.81,10.22,34.34,10.22,34.58
		c0,0.76-0.68,1.34-2.05,1.73C70.38,230.74,69.92,230.81,69.53,230.81z M54.73,220.18c2.16-0.31,4.25-0.46,6.27-0.46
		c1.38,0,2.67,0.06,3.88,0.17l-4.68-15.95l-0.93-2.61c-0.91,5.48-2.23,11.1-3.95,16.85L54.73,220.18z"/>
</g>
<g>
	<path class="st0" d="M84.15,231.3c-0.61,0-1.17-0.11-1.68-0.33c-0.51-0.22-0.76-0.57-0.76-1.06v-32.19
		c-0.45-0.08-0.77-0.29-0.94-0.63c-0.06-0.13-0.09-0.25-0.09-0.38s0.04-0.25,0.12-0.38c0.16-0.25,0.4-0.42,0.73-0.52
		c4.27-1.25,7.98-1.88,11.12-1.88c4.44,0,7.73,1.38,9.88,4.13c1.84,2.36,2.77,5.38,2.77,9.06c0,7.1-2.64,11.67-7.93,13.7
		c-1.64,0.64-3.44,0.96-5.39,0.96c-1.58,0-3.28-0.26-5.09-0.77v8.89c0,0.44-0.26,0.77-0.79,1.01
		C85.56,231.16,84.92,231.28,84.15,231.3z M91.96,219.78c3.08,0,5.61-0.99,7.58-2.96c2.11-2.13,3.17-5.33,3.17-9.6
		c0-3.38-0.79-6.08-2.37-8.1c-1.66-2.11-4.2-3.17-7.63-3.17c-1.63,0-3.57,0.21-5.84,0.63v22.27
		C88.65,219.47,90.35,219.78,91.96,219.78z"/>
	<path class="st0" d="M111.77,231.3c-0.7,0-1.31-0.2-1.82-0.59c-0.51-0.39-0.76-0.86-0.76-1.41v-32.15c-0.8,0-1.2-0.31-1.2-0.94
		c0-0.42,0.28-0.73,0.84-0.94c1.02-0.38,3.07-0.74,6.15-1.08c1.74-0.19,3.43-0.28,5.09-0.28c1.92,0,4.22,0.3,6.88,0.89
		c0.58,0.13,0.87,0.42,0.87,0.89c0,0.11-0.02,0.23-0.05,0.35c-0.14,0.55-0.45,0.82-0.94,0.82c-0.22,0-0.58-0.05-1.08-0.16
		c-2.25-0.53-4.15-0.8-5.7-0.8c-1.78,0-3.7,0.13-5.75,0.4c0.03,0.13,0.05,3.4,0.05,9.83c2.02-0.25,3.9-0.38,5.66-0.38
		c3.1,0,6,0.44,8.7,1.31c0.3,0.09,0.45,0.23,0.45,0.42c0,0.5-0.09,0.86-0.26,1.09c-0.17,0.23-0.35,0.34-0.54,0.34
		c-0.13,0-0.35-0.05-0.68-0.15c-0.33-0.1-0.84-0.23-1.52-0.39c-2-0.42-4.06-0.63-6.17-0.63c-1.78,0-3.66,0.13-5.63,0.4v19.48
		c2.02-0.25,3.89-0.38,5.61-0.38c2.86,0,5.09,0.18,6.69,0.55c1.59,0.37,2.39,0.75,2.39,1.14c0,0.92-0.23,1.38-0.68,1.38
		c-0.11,0-0.39-0.05-0.85-0.16c-0.45-0.11-1.1-0.24-1.95-0.4c-2.03-0.34-3.89-0.52-5.58-0.52c-1.67,0-3.56,0.13-5.66,0.4
		c-0.13,0.49-0.42,0.88-0.89,1.19C112.96,231.15,112.41,231.3,111.77,231.3z"/>
	<path class="st0" d="M140.93,230.36c-1.81,0-2.72-0.44-2.72-1.31v-32.64c-1.85,0.05-3.87,0.25-6.08,0.61
		c-0.58,0.08-1,0.12-1.27,0.12c-0.24,0-0.42-0.11-0.56-0.34c-0.14-0.23-0.21-0.48-0.21-0.76c0-0.44,0.21-0.7,0.63-0.77
		c3.17-0.59,6.59-0.89,10.23-0.89c2.5,0,5.7,0.44,9.6,1.31c0.26,0.06,0.4,0.28,0.4,0.66c0,0.3-0.09,0.58-0.26,0.84
		s-0.41,0.4-0.7,0.4c-0.14,0-0.32-0.02-0.54-0.07c-1.36-0.28-3.39-0.59-6.08-0.92v32.45C143.37,229.92,142.56,230.36,140.93,230.36z
		"/>
</g>
<g>
	<path class="st0" d="M33.98,289.56c-2.42,0-4.68-0.6-6.8-1.81c-1.87-1.07-3.46-2.62-4.76-4.64c-1.91-2.94-2.86-6.67-2.86-11.18
		c0-4.89,0.79-9.85,2.37-14.89c0.84-2.67,1.87-4.99,3.09-6.98c1.73-2.76,3.62-4.76,5.67-5.99c2.04-1.23,4.07-1.84,6.07-1.84
		c3.68,0,6.72,1.66,9.11,4.99c1.75,2.41,2.77,5.64,3.07,9.67c0.04,0.47,0.06,0.95,0.06,1.46c0,0.74-0.52,1.11-1.55,1.11
		c-0.41,0-0.77-0.11-1.07-0.32s-0.46-0.5-0.48-0.85c-0.23-5.2-1.65-9.02-4.26-11.48c-1.01-0.95-2.05-1.43-3.1-1.43
		c-1.44,0-2.84,0.62-4.2,1.87c-2.78,2.51-4.88,6.4-6.28,11.65c-1.23,4.59-1.84,8.9-1.84,12.91c0,6.23,1.77,10.64,5.32,13.23
		c1.21,0.88,2.54,1.31,4,1.31c2.06,0,3.84-0.63,5.31-1.9c2.12-1.79,3.48-4.41,4.06-7.86c0.06-0.35,0.24-0.62,0.54-0.82
		c0.3-0.19,0.64-0.29,1.01-0.29c1.05,0,1.58,0.46,1.58,1.37c0,0.53-0.06,1.03-0.17,1.52c-0.84,3.27-2.38,5.85-4.62,7.74
		C40.49,288.41,37.4,289.56,33.98,289.56z"/>
	<path class="st0" d="M74.39,289.36c-1.23,0-2-0.57-2.34-1.72l-2.45-8.79c-1.93-0.19-3.72-0.29-5.37-0.29
		c-2.53,0-5.33,0.23-8.38,0.7l-2.42,7.74c-0.16,0.51-0.7,0.76-1.64,0.76s-1.4-0.32-1.4-0.96c0-0.62,0.66-2.94,1.99-6.95
		c-0.72,0.1-1.18,0.15-1.37,0.15c-0.33,0-0.6-0.15-0.79-0.44c-0.19-0.29-0.29-0.61-0.29-0.96c0-0.51,0.19-0.8,0.58-0.88
		c0.93-0.19,1.84-0.37,2.71-0.53c2.06-6.56,3.65-12.18,4.76-16.85c1.58-6.79,2.37-10.7,2.37-11.71c0-0.47-0.09-1.27-0.26-2.39
		c0-0.6,0.4-1.09,1.2-1.46c0.72-0.33,1.49-0.5,2.31-0.5c1.5,0,2.38,0.45,2.66,1.34c8.16,27.32,12.23,41.12,12.23,41.41
		c0,0.92-0.82,1.61-2.45,2.07C75.41,289.27,74.86,289.36,74.39,289.36z M56.67,276.62c2.59-0.37,5.09-0.56,7.5-0.56
		c1.65,0,3.2,0.07,4.64,0.2l-5.61-19.1l-1.11-3.13c-1.09,6.56-2.67,13.29-4.73,20.18L56.67,276.62z"/>
	<path class="st0" d="M84.82,290c-0.76,0-1.46-0.14-2.09-0.41c-0.63-0.27-0.95-0.71-0.95-1.31v-40.07c-0.57-0.1-0.95-0.36-1.17-0.79
		c-0.08-0.15-0.12-0.31-0.12-0.47s0.05-0.31,0.15-0.47c0.19-0.31,0.5-0.53,0.91-0.64c5.31-1.56,9.93-2.34,13.84-2.34
		c5.53,0,9.63,1.71,12.3,5.14c2.3,2.94,3.45,6.7,3.45,11.27c0,9.19-3.57,14.97-10.72,17.35c2.49,4.4,5.3,7.7,8.41,9.9
		c0.25,0.17,0.38,0.43,0.38,0.76c0,0.31-0.11,0.6-0.34,0.88c-0.22,0.27-0.61,0.41-1.15,0.41c-0.33,0-0.6-0.07-0.82-0.2
		c-3.23-2.12-6.46-5.79-9.69-11.01c-0.86,0.12-1.74,0.18-2.66,0.18c-1.97,0-4.08-0.32-6.34-0.96v11.07c0,0.54-0.33,0.96-0.98,1.26
		C86.58,289.82,85.77,289.98,84.82,290z M94.55,275.66c3.84,0,6.98-1.23,9.43-3.68c2.63-2.65,3.94-6.63,3.94-11.94
		c0-4.21-0.98-7.56-2.95-10.07c-2.06-2.63-5.23-3.94-9.49-3.94c-2.03,0-4.45,0.26-7.27,0.79v27.71
		C90.43,275.28,92.54,275.66,94.55,275.66z"/>
	<path class="st0" d="M119.49,290c-0.88,0-1.63-0.24-2.26-0.73c-0.63-0.49-0.95-1.07-0.95-1.75v-40.01c-0.99,0-1.49-0.39-1.49-1.17
		c0-0.53,0.35-0.92,1.05-1.17c1.27-0.47,3.81-0.92,7.65-1.34c2.16-0.23,4.27-0.35,6.34-0.35c2.39,0,5.25,0.37,8.56,1.11
		c0.72,0.16,1.08,0.53,1.08,1.11c0,0.14-0.02,0.28-0.06,0.44c-0.18,0.68-0.57,1.02-1.17,1.02c-0.27,0-0.72-0.07-1.34-0.2
		c-2.8-0.66-5.17-0.99-7.1-0.99c-2.22,0-4.6,0.17-7.16,0.5c0.04,0.16,0.06,4.23,0.06,12.24c2.51-0.31,4.86-0.47,7.04-0.47
		c3.86,0,7.47,0.55,10.84,1.64c0.37,0.12,0.55,0.29,0.55,0.53c0,0.62-0.11,1.08-0.32,1.36c-0.22,0.28-0.44,0.42-0.67,0.42
		c-0.16,0-0.44-0.06-0.85-0.19c-0.41-0.13-1.04-0.29-1.9-0.48c-2.49-0.53-5.05-0.79-7.68-0.79c-2.22,0-4.56,0.17-7.01,0.5v24.24
		c2.51-0.31,4.84-0.47,6.98-0.47c3.56,0,6.34,0.23,8.32,0.69c1.98,0.46,2.98,0.93,2.98,1.42c0,1.15-0.28,1.72-0.85,1.72
		c-0.14,0-0.49-0.07-1.05-0.21c-0.56-0.14-1.37-0.3-2.42-0.5c-2.53-0.43-4.85-0.64-6.95-0.64c-2.08,0-4.43,0.17-7.04,0.5
		c-0.16,0.6-0.53,1.09-1.11,1.47C120.97,289.81,120.28,290,119.49,290z"/>
</g>
<g>
	<path class="st0" d="M244.24,168.31c-1.57-8.28-6.61-14.92-10.45-22.12c-1.5-0.5-1.21-2.06-1.82-3.08
		c-7.79-12.95-8.47-27.45-9.11-41.94c-0.14-3.22-0.37-6.41-1.44-9.45c-1.71-4.83-3.22-5.3-7.43-2.45c-1.6-1.09-0.64-2.5-0.24-3.6
		c4.7-13.05,1.88-25.63-2.88-37.84c-2.88-7.39-8.27-8.08-14.35-2.73c-2.96,2.6-5.09,5.83-6.98,9.23c-2.12,3.83-4.19,7.68-6.25,11.54
		c-2.03,3.8-4.57,5.25-9.05,3.39c-5.83-2.42-12.13-2.64-18.43-2.32c-2.68,0.13-5.38,0.69-8.06-0.03c-0.06-2.13,1.4-2.45,3.02-2.4
		c6.85,0.19,13.72-0.5,20.56,0.38c6.61,2.52,8.99-1.49,11.23-6.72c1.98-4.62,4.76-8.9,7.36-13.23c1.57-2.61,3.65-4.84,6.09-6.73
		c6.64-5.13,12.83-3.85,16.68,3.65c3.31,6.43,4.33,13.51,4.85,20.56c0.56,7.53,1.31,14.57,4.86,21.73c4.32,8.7,4.82,18.9,6.27,28.54
		c1.87,12.47,4.99,24.39,11.28,35.4c3.23,5.65,4.67,11.89,5.3,18.33C245.72,167.48,246.05,168.47,244.24,168.31z"/>
	<path class="st0" d="M117.16,70.06c2.89,3.19,4.77,6.96,5.41,11.15c0.71,4.65,1.87,8.02,7.85,4.74c-0.26,3.82-2.27,6-4.77,7.08
		c-5.35,2.31-7.36,6.65-8.3,11.84c-1.33,7.42-0.72,14.83,0.65,22.16c0.53,2.85,0.88,6.31,5.34,5.92c1.69-0.15,1.3,1.19,1.04,2.09
		c-1.34,4.81,0.63,8.91,2.64,13.03c2.76,5.67,6.7,10.53,10.93,15.09c5.37,5.81,12.42,5.42,19.34,4.02
		c8.58-1.73,17.08-3.89,25.63-5.82c3.61-0.81,6.35-3.35,9.8-4.59c-3.23,6.49-9.64,8.28-16.09,10.52c1.61,2.23,3.88,3.96,3.24,7.66
		c-9.36-6.82-19.5-5.52-29.93-4.17c-11.44,1.48-25.69-9.68-28.34-21.8c-1.03-4.7-2.91-8.96-4.72-13.27
		c-3.59-8.54-5.49-17.31-4.75-26.61c0.23-2.9,0.63-5.87,2.14-8.25c6.09-9.53,5.73-19.33,1.84-29.42
		C115.67,70.38,116.13,70,117.16,70.06z"/>
	<path class="st0" d="M117.16,70.06c-0.35,0.46-0.69,0.92-1.04,1.38c-4.27-8.71-7.36-17.8-8.73-27.42c-0.23-1.6-0.7-3.56,0.87-4.71
		c1.67-1.23,3.15,0.24,4.53,1.01c3.21,1.78,6.34,3.68,9.51,5.54c2.56,0.45,4.58,1.65,5.7,4.09c5.36,4.07,10.78,8.08,16.06,12.26
		c2.35,1.87,4.96,1.78,7.67,1.84c6.54,0.15,13.13-1.09,19.59,0.83c-6.08,0.03-12.17,0.06-18.25,0.1c-1.99,0.01-4.16-0.41-5.33,1.92
		c-3.15,0.08-5.19-2.22-7.55-3.7c-6.72-4.21-13.28-8.68-19.99-12.9c-2.22-1.4-5.06-4.13-7.19-2.46c-2.28,1.79-0.6,5.28,0.3,7.98
		c0.94,0.85-0.06,2.27,0.9,3.12C114.09,62.94,116.86,66.18,117.16,70.06z"/>
</g>
<g>
	<path class="st1" d="M74.25,40.92C57.56,51.39,40.17,60.78,24.38,72.66c-7.95,5.98-8.73,8.07-4.55,17.07
		c10.35,22.25,24.04,42.26,42.21,58.88c11.31,10.35,19.6,8.21,25.7-5.88c4.22-9.75,5.39-20.16,6.38-30.59
		c0.83-3.88,0.1-7.82,0.45-11.72c0.27-0.63,0.71-0.78,1.31-0.45c1.45,15.42,1.03,30.72-3.69,45.61
		c-4.09,12.92-11.74,16.28-24.15,10.88c-6.73-2.93-12.51-7.32-17.85-12.27c-16.21-15.01-28.01-33.25-37.6-52.9
		c-5.52-11.32-4.18-17.56,6.33-24.3c22.83-14.65,45.6-29.63,69.67-42.01c13.65-7.02,29.53-10.17,45.24-11.91
		c20.59-2.28,41.17-3.64,61.26,2.76c28.69,9.15,47.73,28.18,56.56,57.13c0.53,1.74,0.49,3.65,0.71,5.48
		c0.83,3.61,0.24,7.26,0.37,10.89c0.03,0.93-0.34,1.59-1.43,1.5c-0.81-4.48-1.44-9-2.46-13.43c-4.73-20.69-18.3-34.4-35.38-45.74
		c-28.3-18.79-58.37-17.49-89.17-8.69c-7.94,2.27-14.54,7.01-19.21,14.07c-0.97,0.11-1.61-0.07-1.11-1.26
		c0.86-4.33,3.48-7.94,5.32-12.7c-12.2,2.48-22.55,7.42-31.55,15.27C76.77,39.45,76.09,40.97,74.25,40.92z"/>
	<path class="st1" d="M274.59,195.47c-7.08-2.01-13.4,0.1-19.09,4.06c-15.06,10.48-30.77,10.73-46.92,3.18
		c-3.8-1.78-4.54-0.12-4.87,2.96c-0.67,6.05-1.1,12.08-0.75,18.19c0.68,11.8,1.28,23.62-0.53,35.39c-2.26-0.43-1.42-2.09-1.45-3.49
		c-0.15-6.94,0.61-13.91-0.38-20.83c-1.03-7.67-2.35-15.32-3.04-23.02c-1.03-11.49-7.75-18.19-17.76-22.39
		c-2.17-0.91-4.42-1.61-6.63-2.4c0.42-2.4,2-1.15,3.22-1.02c13.8,2.6,27.19,6.75,39.76,12.88c8.68,4.24,16.81,3.98,25.31,0.45
		c5.79-2.41,11.18-5.55,16.36-9.03c4.14-2.78,8.25-3.21,12.9-1.27c5.41,2.26,7.04,1.11,8.23-4.76c1.36-6.7-1.24-13.41,0.43-20.17
		c1.29-5.27,2.34-10.56,5.46-15.09c1.65-2.39,1.2-4.47-0.3-6.5c-3.66-4.96-8.7-7.85-14.64-9.2c-3.92-0.89-6.12,1.29-7.25,4.65
		c-0.83,2.46-1.19,5.07-2.39,7.55c-0.73-4.43-2.41-9.25,0.98-12.99c4.43-4.89,9.84-1.88,16.53-0.28
		c-9.87-10.21-20.11-18.21-29.18-28.26c4.99,0.02,6.35,4.23,9.02,6.26c10.04,7.64,20.89,14.4,29.07,24.29
		c1.84,2.22,3.66,4.44,4.68,7.17c0.92,2.46,1.23,5.01-0.44,7.26c-5.81,7.87-6.89,17.02-7.37,26.37c-0.17,3.36-0.42,6.73-0.68,10.09
		c-0.34,4.36-2.44,7.59-6.34,9.61C276.02,195.98,275.34,195.93,274.59,195.47z"/>
	<path class="st1" d="M200.6,234.93c1.99,4.18,0.47,8.62,0.98,12.91c0.45,3.79-1.04,7.73,0.86,11.42c0.49,2.79-0.87,5.34-1.06,8.04
		c-2.35-0.36-0.91-2.24-1.35-3.37c0.45-2.55-0.99-5.2,0.45-7.69C201.35,249.14,200.27,242.03,200.6,234.93z"/>
	<path class="st1" d="M251.29,90.81c2.12-3.98,0.26-8.3,1.07-12.39c1.65,5.06,0.76,10.23,0.73,15.37c-1.09,0.71,0.91,3.14-1.68,3.01
		C251.37,94.8,251.33,92.81,251.29,90.81z"/>
	<path class="st1" d="M176.38,186.09c-1.03,0.46-2.44-0.24-3.22,1.02c-2.51-0.47-5.12-0.52-7.46-1.72c0.46-1.02,1.69-0.43,2.3-1.11
		C170.89,184.51,173.74,184.81,176.38,186.09z"/>
	<path class="st1" d="M95.02,99.98c-0.4,4.04,0.9,8.22-0.9,12.16c0-4.73,0-9.47,0-14.2C95.82,98,95.63,98.9,95.02,99.98z"/>
	<path class="st1" d="M95.02,99.98c-0.3-0.68-0.6-1.36-0.9-2.05c-0.12-1.93-0.24-3.86-0.36-5.8c0.04-1.16-1.28-2.73,0.97-3.23
		c0.38,3.69,0.76,7.37,1.15,11.06C95.59,99.96,95.31,99.97,95.02,99.98z"/>
	<path class="st1" d="M156.35,184.36c-2.07,0-4.13,0-6.2,0c0.03-0.45,0.05-0.9,0.08-1.35c3.92,0.42,7.91-1.18,11.76,1.12
		c-0.23,0.16-0.45,0.32-0.68,0.48C159.64,184.71,157.98,184.77,156.35,184.36z"/>
	<path class="st1" d="M94.73,88.91c-0.32,1.08-0.65,2.15-0.97,3.23c-0.48-2.41-0.96-4.82-1.62-8.07
		C94.52,85.72,94.49,87.38,94.73,88.91z"/>
	<path class="st1" d="M199.68,264.69c0.25-0.15,0.49-0.31,0.71-0.5c0.57,0.96-0.13,2.32,0.98,3.1c0.13,1.54-0.29,2.84-1.7,3.83
		C198.8,268.88,199.88,266.78,199.68,264.69z"/>
	<path class="st1" d="M101.88,40.95c0.38-1.01,0.76-2.03,1.14-3.04c0.88,0.46,0.37,1.5,0.88,2.11c-0.3,1.35-0.59,2.7-0.89,4.05
		C100.56,43.79,101.91,42.12,101.88,40.95z"/>
	<path class="st1" d="M251.41,96.8c0.56-1,1.12-2.01,1.68-3.01c0.44,1.98-0.01,3.73-1.29,5.33
		C251.14,98.38,251.14,97.61,251.41,96.8z"/>
	<path class="st1" d="M168.01,184.28c-0.77,0.37-1.54,0.74-2.3,1.11c-1.23-0.12-2.47-0.24-3.7-0.37c-0.36-0.16-0.49-0.33-0.38-0.51
		c0.11-0.19,0.22-0.28,0.34-0.28l0.02-0.11C164,184.18,166.01,184.23,168.01,184.28z"/>
	<path class="st1" d="M161.97,184.24c0.06,0.26,0.07,0.52,0.04,0.79c-1.94,0.27-3.84,0.11-5.66-0.66
		C158.22,184.32,160.09,184.28,161.97,184.24z"/>
	<path class="st1" d="M103.9,40.02c-0.29-0.7-0.59-1.41-0.88-2.11c0.04-0.84,0.16-1.64,0.95-2.15c0.37,0.42,0.74,0.84,1.11,1.26
		C104.69,38.03,104.3,39.02,103.9,40.02z"/>
</g>
</svg>
