<?xml version="1.0" encoding="utf-8"?>
<!-- Generator: Adobe Illustrator 23.0.0, SVG Export Plug-In . SVG Version: 6.00 Build 0)  -->
<svg version="1.1" id="Layer_1" xmlns="http://www.w3.org/2000/svg" xmlns:xlink="http://www.w3.org/1999/xlink" x="0px" y="0px"
	 viewBox="0 0 749 523" style="enable-background:new 0 0 749 523;" xml:space="preserve">
<style type="text/css">
	.st0{opacity:0.2;enable-background:new    ;}
	.st1{fill:#815113;}
	.st2{opacity:0.2;fill:#A67C52;enable-background:new    ;}
	.st3{fill:#B18B68;}
	.st4{fill:#A67C52;}
	.st5{fill:#262626;}
	.st6{fill:#E8473D;}
	.st7{fill:#5C64AA;}
	.st8{fill:#DB2822;}
	.st9{fill:#303677;}
	.st10{fill:#232046;}
	.st11{fill:#E3E3E3;}
	.st12{fill:#E3E2E2;}
	.st13{fill:none;stroke:#303677;stroke-width:9;stroke-miterlimit:10;}
</style>
<g>
	<path class="st0" d="M645.23,411.75c33.03-4.79,66.29-5.5,70.84-4.79c59.83,8.38-24.89,7.66-74.43,56.96
		c-24.65,24.41-74.43,52.17-118.46,25.37c-47.14-28.72,5.03-46.19,35.42-65.81C567.69,417.5,611.01,416.54,645.23,411.75z"/>
	<path class="st1" d="M548.07,402.66c0,0,2.15,6.46,6.94,14.6c4.79,8.14,2.63,9.81-2.87,15.08c-5.5,5.26-16.03,7.18-21.06,9.33
		c-5.26,2.15-8.85,10.05,2.15,15.32s12.68-2.63,15.79-7.18c3.11-4.55,19.62-15.32,21.78-16.99c2.15-1.91,0.48-6.7,0.24-10.29
		c-0.24-3.59,4.55-14.84,4.55-14.84L548.07,402.66z"/>
	<path class="st2" d="M548.07,402.66c0,0,2.15,6.46,6.94,14.6c4.79,8.14,2.63,9.81-2.87,15.08c-5.5,5.26-16.03,7.18-21.06,9.33
		c-5.26,2.15-8.85,10.05,2.15,15.32s12.68-2.63,15.79-7.18c3.11-4.55,19.62-15.32,21.78-16.99c2.15-1.91,0.48-6.7,0.24-10.29
		c-0.24-3.59,4.55-14.84,4.55-14.84L548.07,402.66z"/>
	<path class="st3" d="M603.35,311.48c3.11,12.2,23.21,23.45,38.05,40.2c14.84,16.51,25.85,47.14,25.85,47.14s19.38,7.66,29.91,8.62
		c10.53,0.96,19.38-6.22,23.21-9.09s7.18-15.32,9.09-13.64c1.91,1.68,0.48,20.58-6.94,28.72c-7.18,8.14-23.93,13.88-37.57,12.44
		s-18.19,0.48-21.06,2.63c-2.87,2.15-1.91,4.07-8.85,13.16c-6.94,9.09-21.06,10.53-21.06,10.53s3.11,9.81-0.48,13.88
		c-3.59,4.07-16.99,9.57-20.34,11.97c-3.35,2.63-8.85,14.36-18.43,10.77c-9.57-3.59-8.38-12.68-5.26-16.75s12.2-1.91,16.75-4.55
		c4.55-2.63,13.64-9.33,13.64-9.33l-10.53-22.26l-15.08-3.59c0,0-5.03,17.71-9.57,33.03c-4.31,15.32,1.2,18.19-5.26,24.41
		c-6.46,6.22-18.67,5.98-24.41-1.44c-5.74-7.42,9.33-12.92,11.49-17.47c2.15-4.31,1.2-11.97,2.63-15.32
		c1.44-3.35,3.83-8.62,6.22-22.5c2.39-13.88-4.79-22.26-11.73-23.21c-6.7-0.72-11.49-2.15-11.49-2.15s-13.16,27.76-16.03,37.81
		c-2.87,10.05-0.24,15.79-2.63,21.06s-18.91,9.81-24.65,0.48c-5.98-9.33,12.44-13.88,14.84-18.67c2.39-4.79,1.44-12.68,2.87-15.32
		c1.44-2.63,9.81-36.61,9.57-42.84s-5.98-20.58-6.94-35.42c-0.96-14.84,7.42-28.96,9.09-32.79c1.91-3.83,0-15.56,1.68-22.26
		c1.91-6.7,4.31-17.47,4.31-17.47s-4.31,6.7-7.18,5.03c-2.87-1.68,0.24-15.08,2.39-22.5c2.15-7.42,11.01-24.65,20.1-27.76
		c9.09-3.11,13.16,4.31,13.16,4.31s5.03,1.2,11.97,4.55c6.94,3.35,11.25,8.38,13.16,11.97
		C600.96,263.86,600.72,299.28,603.35,311.48z"/>
	<g>
		<path class="st0" d="M597.13,424.68c-0.72,2.63-2.39,7.66-2.39,7.66l15.08,3.59c0,0-4.55-12.44-1.91-18.43
			c2.87-5.98,5.5-8.85,12.21-11.01c1.91-0.72,3.83-1.2,5.26-1.44c-3.83,0.48-9.09,0.96-12.68,0.96c-6.7,0-9.57-3.83-9.57-3.83
			C603.35,408.88,597.85,422.28,597.13,424.68z"/>
	</g>
	<path class="st0" d="M589.71,306.69c2.63-1.44,10.53-4.31,12.68-5.98c-1.2-12.2-1.68-28.96-3.11-37.81l-2.63-0.72
		c-1.44,5.98-4.79,15.56-8.62,19.86c-5.26,5.74-8.62,14.36-9.57,17.95C576.55,307.89,578.46,312.92,589.71,306.69z"/>
	<path class="st4" d="M597.61,271.99c0,0-5.03,7.42-9.57,13.88c-4.55,6.46-8.85,18.91-7.18,20.1s8.14-2.87,13.64-5.03
		c5.74-2.15,12.2-7.18,16.03-12.92s-0.96-17.23-4.31-23.69c-3.35-6.46-7.9-9.33-9.81-8.14
		C591.62,259.31,597.61,271.99,597.61,271.99z"/>
	<path class="st0" d="M549.98,255c2.39-3.35,4.79-5.5,8.62-9.09c3.59-3.59,10.29-4.55,14.12-4.55c-0.72-0.96-4.79-6.94-13.16-4.07
		c-9.09,3.35-17.95,20.34-20.1,27.76c-2.15,7.42-5.26,20.82-2.39,22.5c2.63,1.68,6.22-3.59,6.94-4.79v-0.24c0,0-2.63-1.68-4.07-5.5
		c-1.44-4.07-1.91-8.38-0.24-12.44C541.61,260.27,547.59,258.35,549.98,255z"/>
	<path class="st5" d="M544.65,262.27c-0.94,0.7-2.11,3.99,0.82,5.4c2.93,1.29,5.87-1.53,5.05-3.4
		C549.58,262.04,545.59,261.45,544.65,262.27z"/>
	<path class="st6" d="M162.88,107.21c5.73,0.39,7.34,3.64,6.84,9.01c-0.69,7.34-1.97,14.76,0.37,22.07
		c2.76,32.48,12.22,62.79,29.45,90.57c1.97,3.17,3.66,6.47,4.77,10.05c5.38,12.33,6.94,24.63-0.25,36.88
		c-9.99,12.92-23.73,20.55-38.53,26.28c-18.23,7.06-36.76,13.17-56.81,8.4c-9.81-2.04-15.64-8.34-18.65-17.59
		c-2.71-8.32-6.09-16.5-5.12-25.49c0.02-0.87-0.01,0.36,0.02-0.57c-0.25,0.12-0.07,0.36-0.16,0.59c-1.86,6.48-3.94,12.83-5.66,19.28
		c-3.4,12.73-12.78,19.62-23.81,25.04c-5.71-1.28-11.7-1.77-16.53-5.62c-0.22-1.14-0.16-2.44-0.71-3.4
		c-9.34-16.38-4.44-32.99-0.74-49.51c8.71-38.91,23.69-74.87,50.43-105.14c9.12-10.32,19.11-19.73,30.38-27.72
		c1.84-1.3,3.96-2.19,4.62-4.87c2.69-10.78,2.76-10.76,13.95-10.1C145.66,102.97,154.43,102.9,162.88,107.21z"/>
	<path class="st7" d="M196.96,343.77c-17.77-3.18-35.52-6.44-53.31-9.47c-4.85-0.83-9.42-2.36-13.98-4.07
		c-10.58-0.92-21.29-11.64-21.15-21.16c33.06,3.88,61.52-7.2,87.24-26.99c2.54-1.96,4.6-4.55,6.88-6.85
		c3.2-0.96,5.86,0.66,8.62,1.83c20.26,8.58,40.2,17.9,60.46,26.49c3.89,1.53,7.64,3.38,11.45,5.09
		c14.66,6.59,18.06,11.95,17.62,27.9c-0.42,3.25-1.3,6.43-2.98,9.21c-9.95,16.48-19.49,33.21-29.25,49.8
		c-0.81,1.39-1.71,2.79-3.39,3.34c-8.7,14.58-17.64,29.03-25.97,43.83c-2.56,4.54-4.3,4.56-8.28,1.91
		c-9.68-6.45-19.68-12.41-29.55-18.57c-7.66-2.46-13.98-7.01-19.66-12.56c-2.53-2.46-0.22-4,1.11-5.71
		c4.61-5.93,9.22-11.85,13.83-17.78c1.09-6.08,5.75-9.95,9.21-14.48c5.22-6.83,10.6-13.54,15.87-20.33
		c2.96-3.82,1.94-5.83-2.62-6.52c-4.82-0.74-9.66-1.41-14.47-2.19C201.99,346.07,198.98,346.17,196.96,343.77z"/>
	<path class="st8" d="M202.58,239.1c-5.57-10.69-11.39-21.26-16.67-32.09c-9.66-19.8-14.73-40.91-16.87-62.76
		c-0.19-1.99-0.7-4.23,1.06-5.95c18.02,30.04,44.06,52.23,71.51,73.04c1.61,0.05,2.32,1.17,2.91,2.44
		c6.5,5.61,12.95,11.27,19.5,16.81c10.65,9,18.56,18.98,12.99,34.13c-2.22,6.42-8.19,8.6-13.31,11.75
		c-13.98,3.15-26.01-0.21-36.01-10.64C219.24,256.99,209.71,249.17,202.58,239.1z"/>
	<path class="st9" d="M265.17,398.89c9.71-16.89,19.31-33.84,29.19-50.62c2.16-3.67,3.75-7.43,4.89-11.46
		c6.13,2.4,6.95,8.75,10.05,13.42c6.99,15.27,15.09,30,21.7,45.45c0.57,1.19,1.12,2.38,1.71,3.56c0.86,1.79,1.81,3.53,2.79,5.27
		c4.17,8.32,7.45,17.05,11.91,25.23c2.3,4.22,1.99,7.58-3.08,9.4c-7.29,2.1-13.67,6.95-21.58,7.18
		c-9.67,3.85-19.43,7.51-28.98,11.66c-3.77,1.64-5.07,0.82-6.47-2.85C280.09,436.32,272.58,417.62,265.17,398.89z"/>
	<path class="st10" d="M141.02,84.45c-9.13,5.7-18.6,7.14-28.3,1.72c-4.1-2.29-8.1,0.07-12.27-0.7
		C86.64,82.91,80.6,74.02,84.6,60.59c0.79-2.64,0.82-4.7-1.13-7.03c-7.68-9.19-7.19-19.13,1.15-29.45c7.6-9.41,17.93-11.8,28.57-6.3
		c3.69,1.91,7,4.55,10.57,6.72c3.92,2.38,8.41,3.12,11.56-0.48c17.39-19.9,47.19-2.31,53.29,20.12c0.18,0.67,0.31,1.36,0.46,2.04
		c-1.88,2.77-3.13,0.17-4.38-0.65c-8.86-5.87-9.52-5.68-14.31,3.9c-2.07,4.15-3.68,8.62-7.13,11.95c-4.68,4.53-7.85,4.47-12.48-0.16
		c-2.2-2.2-4.17-6.13-7.89-2.88c-3.34,2.91-1.84,6.06,0.69,9.16C147.63,72.48,146.34,79.91,141.02,84.45z"/>
	<path class="st3" d="M141.02,84.45c2.48-6.08,6.49-11.81-0.78-17.98c-3.57-3.03-1.47-7.6,1.8-10.33c3.58-2.99,6.25-0.74,8.65,2.37
		c5.12,6.65,9.09,6.54,13.62-0.7c2.57-4.11,4.88-8.56,6.26-13.17c1.85-6.19,5.53-5.97,9.96-3.82c3,1.46,5.7,3.55,8.53,5.37
		c2.22,12.17,3.36,24.32,0.96,36.64c-2.63,13.51-7.8,16.47-20.51,11.31c-2.75-1.12-5.43-2.42-8.69-3.89
		c-0.2,6.2,1.1,11.57,2.06,16.97c-8.73-0.61-17.45-1.23-26.16-1.84C138.48,98.46,140.45,91.59,141.02,84.45z"/>
	<path class="st11" d="M352.47,455.85c10.21,4.47,20.45,8.88,30.63,13.44c4.08,1.83,8.29,3.12,12.71,3.32
		c3.79,0.18,5.41,1.74,5.48,5.56c0.1,4.8-3.1,4.31-6.16,4.31c-20.28,0-40.56-0.1-60.84,0.08c-4.05,0.03-5.52-1.1-6.15-5.31
		c-1.01-6.74-0.33-12.27,6.07-15.92C341.45,463.37,347.9,462.74,352.47,455.85z"/>
	<path class="st3" d="M56.02,331.24c0.62,1.49,1.37,2.95,1.81,4.49c0.46,1.64,2.82,3.45,0.99,4.88c-2.12,1.66-4.6,0.35-6.03-1.63
		c-4.92-6.79-10.49-5.08-16.42-1.67c-5.58,3.21-10.94,7.25-17.89,6.71c-4.69-0.36-9.47-0.86-10.36-6.98
		c6.79-5.54,13.48-11.22,20.41-16.59c4.91-3.81,8.44-8.43,10.29-14.35c5.57,1.46,11.13,2.92,16.7,4.38
		C55.12,317.42,55.91,324.32,56.02,331.24z"/>
	<path class="st3" d="M344.12,437.76c0.85,1.41,1.7,2.82,2.54,4.23c1.93,4.62,3.87,9.24,5.8,13.87
		c-3.57,9.31-10.56,11.41-18.27,5.47c-3.81-5-7.63-10-11.44-15C329.68,442.96,336.71,439.89,344.12,437.76z"/>
	<path class="st3" d="M191.32,434.86c-9.38,5.44-12.28,4.85-20.89-4.25c2.09-6.8,7.38-11.5,11.29-17.1
		c7,3.48,13.46,7.82,19.66,12.56c-2.03,1.9-4.06,3.79-6.1,5.69C194.47,433.43,193.3,434.67,191.32,434.86z"/>
	<path class="st12" d="M219.11,469.25c-10.41-8.13-16.88-19.28-23.64-30.23c-1.28-1.84-1.97-4.26-4.65-4.71
		c-6.7,3.07-12.73,2.51-17.88-3.21c-0.61-0.67-1.57-0.86-2.52-0.5c-3.97-1.05-5.59,1.75-7.52,4.17c-0.18,0.57-0.36,1.14-0.55,1.71
		c-0.84,2.57-1.42,5.22-1.59,7.91c-0.03,0.49-0.03,0.96,0.1,1.33c0.41,1.22,1.47,1.9,2.28,2.81c0.54,0.6,1.12,1.16,1.81,1.58
		c10.15,6.1,20.39,12.25,30.64,18.42c6.66,3.65,13.44,7.09,19.92,11.04c2.92,1.78,4.22,1.21,6.2-1.27
		C225.36,473.73,221.98,471.5,219.11,469.25z"/>
	<path class="st13" d="M288.41,286.22c0,0,100.01,137.86,257.53,32.22"/>
	<path class="st3" d="M264.23,275.21c4.26-3.51,8.52-7.01,12.78-10.51c1.22,1.4,1.84,3.35,3.79,4.06c1.66,0.07,2.27,1.28,2.78,2.59
		c3.45,2.48,7.37,3.97,11.3,5.45c3.23-0.09,5.4,1.57,6.97,4.23c2.78,1.93,5.56,3.87,8.34,5.8c2.17,0.74,2.82,2.3,2.13,4.35
		c-0.61,1.81-2.26,2.18-3.92,2.26c-2.34,0.1-4.57-0.59-6.8-1.13c-9.16-2.17-9.35-2.04-9.92,7.05c-3.04,4.04-5.73,1.37-8.05-0.7
		c-2.57-2.29-4.41-5.29-6.36-8.15C274.5,284.07,268.79,280.13,264.23,275.21z"/>
	<path class="st9" d="M536.82,320.1c9.09,1.68,18.67,2.15,27.52,2.15c2.63,0,5.26-0.24,7.9-0.24c10.05-0.24,25.61-1.68,35.18-6.46
		c-0.96-1.44-1.44-3.11-1.91-4.55s-0.72-3.11-0.96-4.79c-4.07,2.39-14.36,5.5-32.79,6.22c-12.44,0.72-24.65-0.24-34.7-1.91
		C537.06,314.11,537.3,317.7,536.82,320.1z"/>
</g>
</svg>
